<?xml version="1.0" encoding="UTF-8"?>
<svg version="1.1" xmlns="http://www.w3.org/2000/svg" width="494" height="505">
<path d="M0 0 C2.58423536 -0.00217915 5.16803728 -0.02038677 7.75219727 -0.03930664 C23.32726165 -0.09347755 38.41083017 1.37072326 53.66821289 4.56030273 C54.73241455 4.77871826 55.79661621 4.99713379 56.89306641 5.22216797 C68.28858926 7.60800507 79.19079071 10.61212276 89.91821289 15.18530273 C90.80379883 15.54237305 91.68938477 15.89944336 92.60180664 16.26733398 C106.57525684 21.93634567 119.96709848 28.46799843 132.91821289 36.18530273 C132.91821289 36.84530273 132.91821289 37.50530273 132.91821289 38.18530273 C133.49055664 38.3000293 134.06290039 38.41475586 134.65258789 38.53295898 C137.13292945 39.2471263 138.98189986 40.25838145 141.16821289 41.62280273 C142.22782227 42.27055664 142.22782227 42.27055664 143.30883789 42.93139648 C143.83993164 43.34518555 144.37102539 43.75897461 144.91821289 44.18530273 C144.91821289 44.84530273 144.91821289 45.50530273 144.91821289 46.18530273 C145.59239258 46.40186523 146.26657227 46.61842773 146.96118164 46.84155273 C150.84528837 48.60658935 153.90820758 51.03687934 157.23071289 53.68530273 C157.87588867 54.18416992 158.52106445 54.68303711 159.18579102 55.19702148 C160.80501596 56.47526678 162.36710901 57.82520082 163.91821289 59.18530273 C163.91821289 59.84530273 163.91821289 60.50530273 163.91821289 61.18530273 C164.57821289 61.18530273 165.23821289 61.18530273 165.91821289 61.18530273 C165.91821289 61.84530273 165.91821289 62.50530273 165.91821289 63.18530273 C166.50248047 63.44504883 167.08674805 63.70479492 167.6887207 63.97241211 C170.07382453 65.26995874 171.67011926 66.67871396 173.59008789 68.59155273 C174.58588867 69.58348633 174.58588867 69.58348633 175.60180664 70.59545898 C176.2837207 71.28510742 176.96563477 71.97475586 177.66821289 72.68530273 C178.71428711 73.71977539 178.71428711 73.71977539 179.78149414 74.77514648 C180.44020508 75.43643555 181.09891602 76.09772461 181.77758789 76.77905273 C182.38054687 77.38426758 182.98350586 77.98948242 183.60473633 78.61303711 C184.91821289 80.18530273 184.91821289 80.18530273 184.91821289 82.18530273 C185.57821289 82.18530273 186.23821289 82.18530273 186.91821289 82.18530273 C186.91821289 82.84530273 186.91821289 83.50530273 186.91821289 84.18530273 C187.57821289 84.18530273 188.23821289 84.18530273 188.91821289 84.18530273 C190.27514648 85.66650391 190.27514648 85.66650391 191.81665039 87.72827148 C192.37868164 88.47270508 192.94071289 89.21713867 193.51977539 89.98413086 C194.10500977 90.77239258 194.69024414 91.5606543 195.29321289 92.37280273 C196.44643031 93.90828084 197.60006613 95.44344481 198.75415039 96.97827148 C199.2978125 97.70836426 199.84147461 98.43845703 200.40161133 99.19067383 C201.66235043 100.84879335 202.98961436 102.45607502 204.33227539 104.04858398 C205.91821289 106.18530273 205.91821289 106.18530273 205.91821289 109.18530273 C206.57821289 109.18530273 207.23821289 109.18530273 207.91821289 109.18530273 C209.91821289 112.18530273 209.91821289 112.18530273 209.91821289 115.18530273 C210.57821289 115.18530273 211.23821289 115.18530273 211.91821289 115.18530273 C216.25400264 122.68955422 220.09441249 130.43182187 223.93041992 138.19873047 C224.59620944 139.53771447 225.26923172 140.87312338 225.94897461 142.20507812 C235.24563088 160.46936412 241.93253759 180.60134263 245.72851562 200.6965332 C246.10583217 202.68593163 246.49858292 204.67185303 246.89282227 206.65795898 C258.01939298 263.76795921 247.25762871 326.63555246 218.91821289 377.18530273 C218.4090332 378.1044043 217.89985352 379.02350586 217.37524414 379.97045898 C216.56369634 381.43410092 215.74828887 382.89562259 214.92602539 384.35327148 C213.87001412 386.27291988 212.88572453 388.21977234 211.91821289 390.18530273 C211.25821289 390.18530273 210.59821289 390.18530273 209.91821289 390.18530273 C209.77383789 390.80405273 209.62946289 391.42280273 209.48071289 392.06030273 C208.91821289 394.18530273 208.91821289 394.18530273 207.91821289 396.18530273 C207.25821289 396.18530273 206.59821289 396.18530273 205.91821289 396.18530273 C205.84989258 396.71639648 205.78157227 397.24749023 205.71118164 397.79467773 C204.58512253 401.18949633 202.43908771 403.68163536 200.23071289 406.43530273 C199.31999133 407.58980494 198.40983395 408.74475241 197.50024414 409.90014648 C197.0576123 410.45943848 196.61498047 411.01873047 196.15893555 411.5949707 C194.04834003 414.30028735 192.05925471 417.09400831 190.07446289 419.89233398 C189.69290039 420.31901367 189.31133789 420.74569336 188.91821289 421.18530273 C188.25821289 421.18530273 187.59821289 421.18530273 186.91821289 421.18530273 C186.91821289 421.84530273 186.91821289 422.50530273 186.91821289 423.18530273 C186.25821289 423.18530273 185.59821289 423.18530273 184.91821289 423.18530273 C184.6584668 423.76957031 184.3987207 424.35383789 184.13110352 424.95581055 C182.83355689 427.34091438 181.42480167 428.9372091 179.51196289 430.85717773 C178.85067383 431.52104492 178.18938477 432.18491211 177.50805664 432.86889648 C176.8184082 433.55081055 176.12875977 434.23272461 175.41821289 434.93530273 C174.38374023 435.98137695 174.38374023 435.98137695 173.32836914 437.04858398 C172.66708008 437.70729492 172.00579102 438.36600586 171.32446289 439.04467773 C170.71924805 439.64763672 170.1140332 440.2505957 169.49047852 440.87182617 C167.91821289 442.18530273 167.91821289 442.18530273 165.91821289 442.18530273 C165.91821289 442.84530273 165.91821289 443.50530273 165.91821289 444.18530273 C163.80102539 446.13061523 163.80102539 446.13061523 161.04321289 448.31030273 C160.13829102 449.03475586 159.23336914 449.75920898 158.30102539 450.50561523 C155.91821289 452.18530273 155.91821289 452.18530273 153.91821289 452.18530273 C153.91821289 452.84530273 153.91821289 453.50530273 153.91821289 454.18530273 C152.31689453 455.51049805 152.31689453 455.51049805 150.07836914 457.01342773 C149.26174805 457.56643555 148.44512695 458.11944336 147.60375977 458.68920898 C146.7381543 459.26541992 145.87254883 459.84163086 144.98071289 460.43530273 C144.14991211 460.99604492 143.31911133 461.55678711 142.46313477 462.13452148 C140.78486356 463.26555874 139.10376539 464.39241211 137.41992188 465.51513672 C135.76906736 466.61726375 134.12262323 467.72602956 132.48095703 468.84179688 C128.49714228 471.53916711 124.57731837 474.03516302 120.23071289 476.12280273 C117.05664164 477.65800051 113.89815073 479.19585782 110.77758789 480.83764648 C90.63227009 491.36381372 68.73069319 498.35611461 46.41821289 502.49780273 C45.5591333 502.65732422 44.70005371 502.8168457 43.81494141 502.98120117 C31.2166281 505.1642502 18.58595198 505.37180294 5.83642578 505.37060547 C3.25219042 505.37278462 0.6683885 505.39099224 -1.91577148 505.40991211 C-46.88510765 505.56523735 -88.41749528 491.42227887 -127.08178711 469.18530273 C-127.08178711 468.52530273 -127.08178711 467.86530273 -127.08178711 467.18530273 C-127.63866211 467.08217773 -128.19553711 466.97905273 -128.76928711 466.87280273 C-131.55869721 466.04351865 -133.69569351 464.84231218 -136.08178711 463.18530273 C-136.08178711 462.52530273 -136.08178711 461.86530273 -136.08178711 461.18530273 C-137.07178711 461.18530273 -138.06178711 461.18530273 -139.08178711 461.18530273 C-139.08178711 460.52530273 -139.08178711 459.86530273 -139.08178711 459.18530273 C-139.79334961 458.94553711 -140.50491211 458.70577148 -141.23803711 458.45874023 C-144.52056315 456.98881786 -146.83790524 455.13027027 -149.58178711 452.81030273 C-150.49959961 452.03944336 -151.41741211 451.26858398 -152.36303711 450.47436523 C-153.26022461 449.71897461 -154.15741211 448.96358398 -155.08178711 448.18530273 C-156.02022461 447.47116211 -156.95866211 446.75702148 -157.92553711 446.02124023 C-158.63709961 445.41538086 -159.34866211 444.80952148 -160.08178711 444.18530273 C-160.08178711 443.52530273 -160.08178711 442.86530273 -160.08178711 442.18530273 C-160.66605469 441.92555664 -161.25032227 441.66581055 -161.85229492 441.39819336 C-164.23739875 440.10064673 -165.83369348 438.69189151 -167.75366211 436.77905273 C-168.4175293 436.11776367 -169.08139648 435.45647461 -169.76538086 434.77514648 C-170.78825195 433.74067383 -170.78825195 433.74067383 -171.83178711 432.68530273 C-172.52916992 431.9956543 -173.22655273 431.30600586 -173.94506836 430.59545898 C-174.6037793 429.93416992 -175.26249023 429.27288086 -175.94116211 428.59155273 C-176.84560059 427.68373047 -176.84560059 427.68373047 -177.76831055 426.75756836 C-179.08178711 425.18530273 -179.08178711 425.18530273 -179.08178711 423.18530273 C-179.74178711 423.18530273 -180.40178711 423.18530273 -181.08178711 423.18530273 C-181.08178711 422.52530273 -181.08178711 421.86530273 -181.08178711 421.18530273 C-181.74178711 421.18530273 -182.40178711 421.18530273 -183.08178711 421.18530273 C-184.4387207 419.70410156 -184.4387207 419.70410156 -185.98022461 417.64233398 C-186.82327148 416.52568359 -186.82327148 416.52568359 -187.68334961 415.38647461 C-188.26858398 414.59821289 -188.85381836 413.80995117 -189.45678711 412.99780273 C-190.61000453 411.46232463 -191.76364034 409.92716066 -192.91772461 408.39233398 C-193.46138672 407.66224121 -194.00504883 406.93214844 -194.56518555 406.17993164 C-195.82592465 404.52181212 -197.15318857 402.91453045 -198.49584961 401.32202148 C-200.08178711 399.18530273 -200.08178711 399.18530273 -200.08178711 396.18530273 C-200.74178711 396.18530273 -201.40178711 396.18530273 -202.08178711 396.18530273 C-204.08178711 393.18530273 -204.08178711 393.18530273 -204.08178711 390.18530273 C-204.74178711 390.18530273 -205.40178711 390.18530273 -206.08178711 390.18530273 C-207.76709752 387.19549725 -209.42393805 384.19040627 -211.08178711 381.18530273 C-211.95383789 379.63649414 -211.95383789 379.63649414 -212.84350586 378.05639648 C-222.29032867 360.90648489 -229.71651434 343.00744857 -235.08178711 324.18530273 C-235.63092773 322.35225586 -235.63092773 322.35225586 -236.19116211 320.48217773 C-238.36956961 312.87450848 -239.89551584 305.22374984 -241.26928711 297.43530273 C-241.43638184 296.48880859 -241.60347656 295.54231445 -241.77563477 294.56713867 C-243.9201244 281.88571799 -244.26816842 269.43543643 -244.26708984 256.6003418 C-244.26926122 253.71965408 -244.28742559 250.83935978 -244.30639648 247.95874023 C-244.35772334 231.53802084 -243.11243613 215.5356953 -239.76928711 199.43530273 C-239.5541748 198.37891602 -239.3390625 197.3225293 -239.11743164 196.23413086 C-237.37067487 187.94813579 -235.02605226 180.11932251 -232.08178711 172.18530273 C-231.59641432 170.68729941 -231.1164883 169.18751002 -230.64428711 167.68530273 C-225.13053902 151.29637196 -218.17884025 134.53099159 -208.39428711 120.21655273 C-206.92321158 118.12500955 -206.92321158 118.12500955 -206.08178711 115.18530273 C-205.42178711 115.18530273 -204.76178711 115.18530273 -204.08178711 115.18530273 C-203.93741211 114.56655273 -203.79303711 113.94780273 -203.64428711 113.31030273 C-203.08178711 111.18530273 -203.08178711 111.18530273 -202.08178711 109.18530273 C-201.42178711 109.18530273 -200.76178711 109.18530273 -200.08178711 109.18530273 C-200.0134668 108.65420898 -199.94514648 108.12311523 -199.87475586 107.57592773 C-198.74869675 104.18110914 -196.60266193 101.68897011 -194.39428711 98.93530273 C-193.48356555 97.78080053 -192.57340817 96.62585306 -191.66381836 95.47045898 C-191.22118652 94.91116699 -190.77855469 94.351875 -190.32250977 93.77563477 C-188.21191425 91.07031812 -186.22282893 88.27659716 -184.23803711 85.47827148 C-183.66569336 84.83825195 -183.66569336 84.83825195 -183.08178711 84.18530273 C-182.42178711 84.18530273 -181.76178711 84.18530273 -181.08178711 84.18530273 C-181.08178711 83.52530273 -181.08178711 82.86530273 -181.08178711 82.18530273 C-180.42178711 82.18530273 -179.76178711 82.18530273 -179.08178711 82.18530273 C-178.82204102 81.60103516 -178.56229492 81.01676758 -178.29467773 80.41479492 C-176.9971311 78.02969109 -175.58837588 76.43339637 -173.67553711 74.51342773 C-173.01424805 73.84956055 -172.35295898 73.18569336 -171.67163086 72.50170898 C-170.98198242 71.81979492 -170.29233398 71.13788086 -169.58178711 70.43530273 C-168.89213867 69.73791992 -168.20249023 69.04053711 -167.49194336 68.32202148 C-166.8306543 67.66331055 -166.16936523 67.00459961 -165.48803711 66.32592773 C-164.88282227 65.72296875 -164.27760742 65.12000977 -163.65405273 64.4987793 C-162.08178711 63.18530273 -162.08178711 63.18530273 -160.08178711 63.18530273 C-160.08178711 62.52530273 -160.08178711 61.86530273 -160.08178711 61.18530273 C-159.42178711 61.18530273 -158.76178711 61.18530273 -158.08178711 61.18530273 C-158.08178711 60.52530273 -158.08178711 59.86530273 -158.08178711 59.18530273 C-156.55297852 57.76489258 -156.55297852 57.76489258 -154.43334961 56.14624023 C-153.29639648 55.27612305 -153.29639648 55.27612305 -152.13647461 54.38842773 C-151.33467773 53.78514648 -150.53288086 53.18186523 -149.70678711 52.56030273 C-148.91272461 51.94928711 -148.11866211 51.33827148 -147.30053711 50.70874023 C-141.34333147 46.18530273 -141.34333147 46.18530273 -139.08178711 46.18530273 C-139.08178711 45.52530273 -139.08178711 44.86530273 -139.08178711 44.18530273 C-138.09178711 44.18530273 -137.10178711 44.18530273 -136.08178711 44.18530273 C-136.08178711 43.52530273 -136.08178711 42.86530273 -136.08178711 42.18530273 C-130.78766946 38.18530273 -130.78766946 38.18530273 -127.08178711 38.18530273 C-127.08178711 37.52530273 -127.08178711 36.86530273 -127.08178711 36.18530273 C-120.59111989 31.42642451 -113.01949191 28.04867028 -105.76928711 24.62280273 C-104.7625293 24.14391602 -103.75577148 23.6650293 -102.71850586 23.17163086 C-96.42231968 20.20609472 -90.12475918 17.47239806 -83.58178711 15.09545898 C-81.54912553 14.35544313 -79.55706636 13.50462383 -77.58178711 12.62280273 C-67.90724942 8.6493319 -57.81995106 6.31110884 -47.57055664 4.375 C-45.58115822 3.99768346 -43.59523682 3.6049327 -41.60913086 3.21069336 C-27.7273323 0.50641339 -14.093634 -0.00132372 0 0 Z " fill="#FCFCFC" transform="translate(244.081787109375,-0.185302734375)"/>
<path d="M0 0 C2.41294034 0.02359903 4.82476587 0.02052772 7.23779297 0.01391602 C23.30006447 0.03890399 38.48791068 1.47640355 53.92138672 6.14868164 C55.07509766 6.47932617 56.22880859 6.8099707 57.41748047 7.15063477 C86.58038837 15.71538956 111.62961042 31.56460627 133.54638672 52.33618164 C129.81675823 54.48120114 125.81162806 55.43561727 121.67138672 56.46118164 C120.97658203 56.64293945 120.28177734 56.82469727 119.56591797 57.01196289 C115.46786901 58.03840453 111.80604424 58.53647902 107.54638672 58.33618164 C107.54638672 57.67618164 107.54638672 57.01618164 107.54638672 56.33618164 C106.98306641 56.06032227 106.41974609 55.78446289 105.83935547 55.50024414 C103.47334506 54.29910087 101.17198818 53.01116645 98.85888672 51.71118164 C86.07688615 44.77626644 73.87436137 39.12258408 59.54638672 36.33618164 C57.85835938 35.99973633 57.85835938 35.99973633 56.13623047 35.65649414 C26.57810377 30.60914151 -5.89442879 36.39453002 -30.84033203 53.42602539 C-31.70271484 54.05637695 -32.56509766 54.68672852 -33.45361328 55.33618164 C-33.97648926 55.71532715 -34.49936523 56.09447266 -35.03808594 56.48510742 C-46.78621537 64.50366971 -46.78621537 64.50366971 -55.45361328 75.33618164 C-56.11361328 75.33618164 -56.77361328 75.33618164 -57.45361328 75.33618164 C-57.71916016 75.90852539 -57.98470703 76.48086914 -58.25830078 77.07055664 C-59.51117433 79.44528429 -60.96586437 81.44085053 -62.57861328 83.58618164 C-79.75591204 107.92068821 -85.95023759 137.37411207 -81.32861328 166.64868164 C-78.68077718 181.37574046 -72.8556505 194.42958374 -65.45361328 207.33618164 C-58.81438097 206.28952619 -52.60766676 204.47297148 -46.25488281 202.29223633 C-40.9977151 200.49404155 -35.69739954 198.93661982 -30.34423828 197.44555664 C-27.34134862 196.60169051 -24.35765823 195.70366164 -21.37548828 194.78930664 C-20.48949951 194.51852295 -19.60351074 194.24773926 -18.69067383 193.96875 C-16.94868177 193.43462391 -15.20788738 192.89657092 -13.46850586 192.35400391 C-8.78856085 190.9237485 -4.31918489 189.87971117 0.54638672 189.33618164 C-1.77059781 191.89913455 -4.12614402 193.3967853 -7.17236328 195.00805664 C-8.15333984 195.53077148 -9.13431641 196.05348633 -10.14501953 196.59204102 C-11.78277344 197.45539063 -11.78277344 197.45539063 -13.45361328 198.33618164 C-14.65061422 198.97412911 -15.84721556 199.61282682 -17.04345703 200.25219727 C-21.00976514 202.37059594 -24.98119168 204.47927381 -28.95361328 206.58618164 C-29.65882111 206.96024139 -30.36402893 207.33430115 -31.09060669 207.71969604 C-33.93448763 209.22799341 -36.77844004 210.73615507 -39.62281799 212.24351501 C-43.47472225 214.28509133 -47.32334579 216.33260921 -51.16845703 218.38696289 C-59.89790336 223.0379617 -68.70327365 227.42872989 -77.68408203 231.57446289 C-81.70938749 233.43718889 -85.65126644 235.4478307 -89.57080078 237.52368164 C-91.45361328 238.33618164 -91.45361328 238.33618164 -94.45361328 238.33618164 C-94.45361328 238.99618164 -94.45361328 239.65618164 -94.45361328 240.33618164 C-95.28763672 240.65071289 -96.12166016 240.96524414 -96.98095703 241.28930664 C-102.18076883 243.26678375 -107.34650967 245.23664023 -112.39111328 247.58618164 C-115.72290876 249.11069322 -118.77936204 249.95933536 -122.45361328 250.33618164 C-122.45361328 250.99618164 -122.45361328 251.65618164 -122.45361328 252.33618164 C-122.98728516 252.50633789 -123.52095703 252.67649414 -124.07080078 252.85180664 C-125.18841797 253.21532227 -125.18841797 253.21532227 -126.32861328 253.58618164 C-127.04791016 253.81821289 -127.76720703 254.05024414 -128.50830078 254.28930664 C-131.04754338 255.1918491 -133.52257432 256.17220213 -136.01611328 257.19165039 C-150.98357848 263.21578484 -166.48235497 267.98231775 -182.45361328 270.33618164 C-183.95408203 270.60688477 -183.95408203 270.60688477 -185.48486328 270.88305664 C-193.51523328 272.10874469 -201.07120085 272.15668933 -208.55126953 268.79711914 C-212.41168992 265.83244311 -214.22105438 262.5557638 -215.12548828 257.81274414 C-215.35402782 246.54574501 -212.32114208 238.85932657 -206.45361328 229.33618164 C-205.85677734 228.35262695 -205.25994141 227.36907227 -204.64501953 226.35571289 C-201.50519394 221.56258421 -198.06432262 217.75373597 -193.63330078 214.13305664 C-190.23151413 211.32871639 -187.06186029 208.27057826 -183.84814453 205.25415039 C-181.44349362 203.32807601 -179.35855437 202.31137501 -176.45361328 201.33618164 C-176.61369873 200.50546143 -176.77378418 199.67474121 -176.9387207 198.81884766 C-177.49317171 195.06861362 -177.65043403 191.39543003 -177.69189453 187.61352539 C-177.70638138 186.51210205 -177.70638138 186.51210205 -177.72116089 185.38842773 C-177.74594092 183.01679409 -177.75855204 180.64543074 -177.76611328 178.27368164 C-177.7705394 177.06290451 -177.7705394 177.06290451 -177.77505493 175.82766724 C-177.78579513 162.92644995 -176.75921369 150.85313881 -173.45361328 138.33618164 C-173.19193359 137.23016602 -172.93025391 136.12415039 -172.66064453 134.98461914 C-171.34738137 129.71705532 -169.50713901 124.78714939 -167.41064453 119.78540039 C-166.48018768 117.4041904 -165.79760202 115.0550626 -165.14111328 112.58618164 C-163.84383484 108.06732841 -161.97471263 103.97179586 -159.89111328 99.77368164 C-159.58584717 99.15332031 -159.28058105 98.53295898 -158.96606445 97.89379883 C-156.70824283 93.46349641 -156.70824283 93.46349641 -154.45361328 92.33618164 C-154.18419922 91.64524414 -153.91478516 90.95430664 -153.63720703 90.24243164 C-152.07513908 86.40685886 -149.87017232 83.22865224 -147.51611328 79.83618164 C-147.03029785 79.13420654 -146.54448242 78.43223145 -146.04394531 77.70898438 C-138.93832694 67.59520647 -130.89259286 57.36450054 -121.45361328 49.33618164 C-120.79361328 49.33618164 -120.13361328 49.33618164 -119.45361328 49.33618164 C-119.12361328 48.34618164 -118.79361328 47.35618164 -118.45361328 46.33618164 C-117.79361328 46.33618164 -117.13361328 46.33618164 -116.45361328 46.33618164 C-116.12361328 45.34618164 -115.79361328 44.35618164 -115.45361328 43.33618164 C-113.97338867 41.97680664 -113.97338867 41.97680664 -112.05126953 40.58618164 C-111.33479248 40.06548096 -110.61831543 39.54478027 -109.88012695 39.00830078 C-109.10000244 38.45650146 -108.31987793 37.90470215 -107.51611328 37.33618164 C-106.71214111 36.76311279 -105.90816895 36.19004395 -105.07983398 35.59960938 C-82.49876856 19.69376793 -59.35293214 9.42932724 -32.45361328 3.33618164 C-31.26380859 3.06483398 -30.07400391 2.79348633 -28.84814453 2.51391602 C-19.15621841 0.4968924 -9.88834399 -0.10281642 0 0 Z " fill="#4052F2" transform="translate(240.45361328125,74.663818359375)"/>
<path d="M0 0 C2 1 2 1 2.78125 2.890625 C3.0184375 3.66921875 3.255625 4.4478125 3.5 5.25 C4.23631939 7.63503453 4.96931623 9.92972427 5.96875 12.21875 C18.23317881 45.29554286 14.69767429 85.27903725 4 118 C3.68289063 119.01707031 3.36578125 120.03414063 3.0390625 121.08203125 C-4.78698871 144.45248694 -18.26952604 166.31222307 -35.6953125 183.6875 C-38.13161342 186.03880151 -38.13161342 186.03880151 -40.4375 189.125 C-45.40208843 194.99805693 -51.88890903 199.40040152 -58 204 C-58.95648438 204.72703125 -59.91296875 205.4540625 -60.8984375 206.203125 C-63.56502381 208.1893799 -66.26525041 210.10882453 -69 212 C-69.88816406 212.62132812 -70.77632812 213.24265625 -71.69140625 213.8828125 C-87.45401142 224.25129047 -105.73204656 231.47632344 -124 236 C-125.10988281 236.29261719 -126.21976563 236.58523438 -127.36328125 236.88671875 C-142.0729685 240.5686307 -156.72899661 241.37609505 -171.8125 241.3125 C-172.64329071 241.31167419 -173.47408142 241.31084839 -174.33004761 241.30999756 C-202.27457331 241.24607822 -202.27457331 241.24607822 -215 236 C-216.72329828 235.57935239 -218.45323853 235.18537873 -220.1875 234.8125 C-232.15733949 231.89014708 -243.74156139 227.08963149 -254.421875 220.96875 C-260.03666195 218.85895127 -265.347049 221.7699471 -270.625 223.875 C-281.45863019 228.02965062 -292.21543277 231.61345753 -304 230 C-308.65590406 227.68819188 -308.65590406 227.68819188 -310 225 C-311.81367142 213.87065266 -306.38800583 204.6910222 -300.25 195.8125 C-298.5561042 193.69513025 -296.90713616 191.89760047 -295 190 C-293.90678979 188.77960939 -292.82411022 187.54973443 -291.75 186.3125 C-291.13511719 185.60867188 -290.52023437 184.90484375 -289.88671875 184.1796875 C-288.67180721 182.7761251 -287.46534919 181.3651776 -286.26953125 179.9453125 C-282.8977179 175.97938101 -279.4033831 172.53814477 -275.43359375 169.1796875 C-272.1584976 166.2462948 -269.09018165 163.12605238 -266 160 C-261.75907708 155.71892633 -257.51111846 151.53151333 -252.9140625 147.62890625 C-250.61180906 145.66964159 -248.36926677 143.65039865 -246.125 141.625 C-245.28195313 140.86574219 -244.43890625 140.10648438 -243.5703125 139.32421875 C-241.87340809 137.78978391 -240.18060369 136.2508012 -238.4921875 134.70703125 C-225.60456488 122.97081065 -211.57103667 112.55934253 -197 103 C-196.34 103.33 -195.68 103.66 -195 104 C-195.33 104.66 -195.66 105.32 -196 106 C-196.66 106 -197.32 106 -198 106 C-198.25652344 106.5465625 -198.51304687 107.093125 -198.77734375 107.65625 C-200.72531446 111.39037915 -203.12146166 114.83248251 -205.44140625 118.34375 C-206.80142458 120.66157572 -207.54902317 122.38062774 -208 125 C-207.24589844 125.37511719 -207.24589844 125.37511719 -206.4765625 125.7578125 C-204.46738806 126.76556876 -202.46336152 127.78358386 -200.4609375 128.8046875 C-199.09901542 129.49490432 -197.73703453 130.18500511 -196.375 130.875 C-195.38306641 131.38353516 -195.38306641 131.38353516 -194.37109375 131.90234375 C-185.58379781 136.33815725 -176.85485017 139.52606121 -167.25 141.6875 C-166.34378906 141.89955078 -165.43757812 142.11160156 -164.50390625 142.33007812 C-140.31733393 147.92653318 -112.41205957 146.21458558 -90.31640625 134.1484375 C-88 133 -88 133 -85.15625 132.125 C-81.34949529 130.76813693 -78.28990364 128.84782885 -74.9375 126.625 C-74.33873047 126.23828125 -73.73996094 125.8515625 -73.12304688 125.453125 C-70.35286306 123.64476842 -67.76086253 121.80509797 -65.19140625 119.7109375 C-63 118 -63 118 -61 118 C-61 117.34 -61 116.68 -61 116 C-56.52941176 112 -56.52941176 112 -54 112 C-53.7525 111.443125 -53.505 110.88625 -53.25 110.3125 C-51.77075182 107.57589087 -50.06532561 105.32349131 -48 103 C-47.34 103 -46.68 103 -46 103 C-45.7525 102.443125 -45.505 101.88625 -45.25 101.3125 C-44 99 -44 99 -42.25 96.9375 C-38.9243223 92.59564301 -36.53099803 87.83646158 -34 83 C-33.47921875 82.04609375 -32.9584375 81.0921875 -32.421875 80.109375 C-28.46843111 72.64175877 -26.10938272 65.1594759 -24 57 C-23.45085937 55.45505859 -23.45085937 55.45505859 -22.890625 53.87890625 C-21.8554525 49.37045761 -21.92167506 45.3036047 -21.97827148 40.69726562 C-22.08686645 23.46849097 -22.08686645 23.46849097 -16.4375 17.5 C-14.64324402 15.97822415 -12.83094963 14.47742333 -11 13 C-9.47496504 11.20464112 -7.99284229 9.37167467 -6.5625 7.5 C-4.49159185 4.83678618 -2.44231635 2.33028349 0 0 Z " fill="#4052F3" transform="translate(415,191)"/>
<path d="M0 0 C0.99 0 1.98 0 3 0 C1.27437479 4.25093038 -1.75442462 7.35670956 -4.75 10.75 C-8.19571607 14.69485705 -11.56018746 18.62085722 -14.625 22.875 C-15.40875 23.90625 -16.1925 24.9375 -17 26 C-17.66 26 -18.32 26 -19 26 C-19.24621094 26.55558594 -19.49242187 27.11117187 -19.74609375 27.68359375 C-21.24004406 30.44344588 -23.05058408 32.65316859 -25.0625 35.0625 C-26.26712891 36.51269531 -26.26712891 36.51269531 -27.49609375 37.9921875 C-28.32238281 38.98476562 -29.14867187 39.97734375 -30 41 C-31.54300793 42.89474185 -33.08471437 44.79054446 -34.625 46.6875 C-37.86312614 50.65151081 -41.17389243 54.53209746 -44.58984375 58.34375 C-46.18846226 60.15589623 -46.18846226 60.15589623 -48 63 C-48.66 63 -49.32 63 -50 63 C-50.36738281 63.83144531 -50.36738281 63.83144531 -50.7421875 64.6796875 C-52.25203792 67.46493951 -54.09167133 69.69492427 -56.125 72.125 C-59.9732263 76.74411492 -63.70378564 81.43542256 -67.37109375 86.19921875 C-67.90863281 86.79347656 -68.44617188 87.38773437 -69 88 C-69.66 88 -70.32 88 -71 88 C-71.66 89.32 -72.32 90.64 -73 92 C-73.66 92 -74.32 92 -75 92 C-75.76368428 87.00877772 -76.42118374 82.01518647 -77 77 C-77.20496094 75.32357422 -77.20496094 75.32357422 -77.4140625 73.61328125 C-77.72106292 69.17314553 -77.89914934 66.25560498 -75.24609375 62.55078125 C-73.24953447 60.56136529 -71.17221445 58.79104363 -69 57 C-68.505 56.01 -68.505 56.01 -68 55 C-67.34 55 -66.68 55 -66 55 C-65.67 54.01 -65.34 53.02 -65 52 C-64.34 52 -63.68 52 -63 52 C-62.34 50.68 -61.68 49.36 -61 48 C-60.34 48 -59.68 48 -59 48 C-58.67 47.01 -58.34 46.02 -58 45 C-57.34 45 -56.68 45 -56 45 C-55.599021 44.11006348 -55.599021 44.11006348 -55.18994141 43.20214844 C-53.98415007 40.97066755 -52.7641905 39.5335201 -50.9609375 37.765625 C-50.38085938 37.19199219 -49.80078125 36.61835938 -49.203125 36.02734375 C-48.59984375 35.44082031 -47.9965625 34.85429687 -47.375 34.25 C-46.76398438 33.64800781 -46.15296875 33.04601562 -45.5234375 32.42578125 C-44.02011376 30.94594695 -42.51065144 29.47235324 -41 28 C-48.98485292 29.51436866 -56.39673602 32.16245852 -64 35 C-64.62052246 35.23138672 -65.24104492 35.46277344 -65.88037109 35.70117188 C-69.47920118 37.04636129 -73.07007139 38.41050162 -76.65625 39.7890625 C-78.27071441 40.40135532 -79.88529893 41.01333154 -81.5 41.625 C-82.30308594 41.93695313 -83.10617187 42.24890625 -83.93359375 42.5703125 C-89.00067782 44.47560181 -93.56249649 45.85149675 -99 46 C-101.58984375 44.81640625 -101.58984375 44.81640625 -104 43 C-105.05316406 42.34902344 -106.10632813 41.69804687 -107.19140625 41.02734375 C-109.4418496 39.63222533 -111.69184863 38.23638992 -113.94140625 36.83984375 C-116.26578284 35.44165553 -118.55057271 34.15584222 -121 33 C-120.67 32.34 -120.34 31.68 -120 31 C-117.67089844 30.25390625 -117.67089844 30.25390625 -114.609375 29.5625 C-113.50722656 29.30726563 -112.40507812 29.05203125 -111.26953125 28.7890625 C-110.10808594 28.52867187 -108.94664062 28.26828125 -107.75 28 C-105.47316324 27.48265351 -103.19708877 26.9619381 -100.921875 26.4375 C-99.39965332 26.09525391 -99.39965332 26.09525391 -97.84667969 25.74609375 C-95.10883047 25.02852366 -92.61669934 24.0674583 -90 23 C-88.70955249 22.65441822 -87.40944887 22.3425528 -86.1015625 22.0703125 C-85.38315186 21.91699463 -84.66474121 21.76367676 -83.92456055 21.60571289 C-83.16570557 21.44707764 -82.40685059 21.28844238 -81.625 21.125 C-74.70083333 19.63382352 -67.87150948 17.93520495 -61.0390625 16.0625 C-56.24257513 14.77309561 -51.40073873 13.68238637 -46.5625 12.5625 C-40.23932255 11.09299334 -34.03983138 9.47180028 -27.875 7.4375 C-21.00926322 5.19605967 -14.11491752 3.63828729 -7.02880859 2.25561523 C-3.19932207 1.80976735 -3.19932207 1.80976735 0 0 Z " fill="#4152ED" transform="translate(438,129)"/>
<path d="M0 0 C5 5 5 5 6 8 C5.34 8 4.68 8 4 8 C3.896875 8.721875 3.79375 9.44375 3.6875 10.1875 C2.92653591 13.30053492 1.9090983 15.43005998 0 18 C-0.99 18 -1.98 18 -3 18 C-3.33 18.99 -3.66 19.98 -4 21 C-4.66 21 -5.32 21 -6 21 C-6 21.66 -6 22.32 -6 23 C-6.99 23.33 -7.98 23.66 -9 24 C-8.896875 24.928125 -8.79375 25.85625 -8.6875 26.8125 C-8.790625 27.864375 -8.89375 28.91625 -9 30 C-11.375 31.8125 -11.375 31.8125 -14 33 C-14.99 33.495 -14.99 33.495 -16 34 C-16.33 34.99 -16.66 35.98 -17 37 C-17.99 37 -18.98 37 -20 37 C-20 37.66 -20 38.32 -20 39 C-20.66 39 -21.32 39 -22 39 C-22.0825 39.7425 -22.165 40.485 -22.25 41.25 C-23.14809799 44.54302595 -24.38416074 45.85976788 -27 48 C-27.66 48 -28.32 48 -29 48 C-29 48.99 -29 49.98 -29 51 C-29.99 51 -30.98 51 -32 51 C-34.38963469 44.63723775 -34.83674812 38.73802434 -34 32 C-32 29.125 -32 29.125 -29 27 C-27.63537611 25.8245319 -26.28184731 24.63610499 -24.9375 23.4375 C-24.25300781 22.84066406 -23.56851562 22.24382812 -22.86328125 21.62890625 C-18.63150372 18.05664645 -18.63150372 18.05664645 -16 13.3125 C-15.67 12.549375 -15.34 11.78625 -15 11 C-14.401875 10.855625 -13.80375 10.71125 -13.1875 10.5625 C-10.20290299 9.7950322 -9.19644402 7.92628277 -7.37109375 5.56640625 C-5.23686282 3.12815382 -2.76191118 1.66999281 0 0 Z " fill="#4051EF" transform="translate(397,164)"/>
<path d="M0 0 C-20.32923424 11.67517045 -40.97835813 22.62647571 -62 33 C-62.33 32.34 -62.66 31.68 -63 31 C-62.34 31 -61.68 31 -61 31 C-61 30.34 -61 29.68 -61 29 C-60.34 29 -59.68 29 -59 29 C-59.53977565 25.52451159 -59.53977565 25.52451159 -61 22 C-64.00594421 20.46853622 -64.00594421 20.46853622 -67 20 C-67 19.34 -67 18.68 -67 18 C-67.66 18 -68.32 18 -69 18 C-69 17.34 -69 16.68 -69 16 C-69.66 16 -70.32 16 -71 16 C-71.33 13.36 -71.66 10.72 -72 8 C-69.58603766 10.89675481 -67.61382757 13.59787701 -66 17 C-59.36076769 15.95334455 -53.15405348 14.13678984 -46.80126953 11.95605469 C-41.5489719 10.1595257 -36.25257989 8.60536639 -30.90625 7.109375 C-26.02422905 5.7359827 -21.16937249 4.2718644 -16.3125 2.8125 C-15.43827393 2.55025635 -14.56404785 2.2880127 -13.66333008 2.01782227 C-3.42350433 -1.06246686 -3.42350433 -1.06246686 0 0 Z " fill="#4052EA" transform="translate(241,265)"/>
<path d="M0 0 C0.69921875 1.671875 0.69921875 1.671875 1 4 C-0.29296875 6.578125 -0.29296875 6.578125 -2.1875 9.25 C-2.79980469 10.14203125 -3.41210938 11.0340625 -4.04296875 11.953125 C-4.68878906 12.62859375 -5.33460938 13.3040625 -6 14 C-7.32 14 -8.64 14 -10 14 C-10.2475 14.73863281 -10.495 15.47726563 -10.75 16.23828125 C-12.11871331 19.26228221 -13.60587126 20.91219751 -16 23.1875 C-16.70125 23.86167969 -17.4025 24.53585938 -18.125 25.23046875 C-19.053125 26.10638672 -19.053125 26.10638672 -20 27 C-21.52097602 28.52097602 -23.01656213 30.06739023 -24.5 31.625 C-27 34 -27 34 -29 34 C-28.85761163 36.04190981 -28.71092972 38.08352045 -28.5625 40.125 C-28.48128906 41.26195312 -28.40007812 42.39890625 -28.31640625 43.5703125 C-28.02269035 46.7540478 -27.56875687 49.85510907 -27 53 C-26.01 53 -25.02 53 -24 53 C-24 52.01 -24 51.02 -24 50 C-23.34 50 -22.68 50 -22 50 C-21.34 48.68 -20.68 47.36 -20 46 C-19.34 46 -18.68 46 -18 46 C-17.67 44.35 -17.34 42.7 -17 41 C-16.34 41 -15.68 41 -15 41 C-15 40.34 -15 39.68 -15 39 C-14.01 39 -13.02 39 -12 39 C-11.67 37.68 -11.34 36.36 -11 35 C-9.02 34.505 -9.02 34.505 -7 34 C-8.53103256 37.56149285 -10.67263877 39.9951691 -13.3125 42.8125 C-16.07357837 45.8088471 -18.64547772 48.75559 -20.9375 52.125 C-21.618125 53.07375 -22.29875 54.0225 -23 55 C-23.66 55 -24.32 55 -25 55 C-25.66 56.32 -26.32 57.64 -27 59 C-27.66 59 -28.32 59 -29 59 C-29.76368428 54.00877772 -30.42118374 49.01518647 -31 44 C-31.20496094 42.32357422 -31.20496094 42.32357422 -31.4140625 40.61328125 C-31.72106292 36.17314553 -31.89914934 33.25560498 -29.24609375 29.55078125 C-27.24953447 27.56136529 -25.17221445 25.79104363 -23 24 C-22.67 23.34 -22.34 22.68 -22 22 C-21.34 22 -20.68 22 -20 22 C-19.67 21.01 -19.34 20.02 -19 19 C-18.34 19 -17.68 19 -17 19 C-16.34 17.68 -15.68 16.36 -15 15 C-14.34 15 -13.68 15 -13 15 C-12.67 14.01 -12.34 13.02 -12 12 C-11.34 12 -10.68 12 -10 12 C-9.75507813 11.42765625 -9.51015625 10.8553125 -9.2578125 10.265625 C-7.78889901 7.61975598 -6.04651756 5.85146861 -3.875 3.75 C-3.15054687 3.04359375 -2.42609375 2.3371875 -1.6796875 1.609375 C-1.12539063 1.07828125 -0.57109375 0.5471875 0 0 Z " fill="#4753DA" transform="translate(392,162)"/>
<path d="M0 0 C-20.32923424 11.67517045 -40.97835813 22.62647571 -62 33 C-62.33 32.34 -62.66 31.68 -63 31 C-62.34 31 -61.68 31 -61 31 C-61 30.34 -61 29.68 -61 29 C-59.71802734 28.49339844 -59.71802734 28.49339844 -58.41015625 27.9765625 C-57.30542969 27.53054688 -56.20070312 27.08453125 -55.0625 26.625 C-53.96035156 26.18414062 -52.85820312 25.74328125 -51.72265625 25.2890625 C-48.88769814 24.28958568 -48.88769814 24.28958568 -48 22 C-45.19497588 20.8637877 -42.34235465 19.94799329 -39.46875 19 C-36.85311602 18.25714944 -36.85311602 18.25714944 -36 16 C-35.01 16 -34.02 16 -33 16 C-32.67 15.01 -32.34 14.02 -32 13 C-31.34 13 -30.68 13 -30 13 C-30 12.34 -30 11.68 -30 11 C-34.62 11.33 -39.24 11.66 -44 12 C-40.90608184 9.93738789 -38.62993578 9.21715262 -35.0625 8.25 C-28.78896895 6.51099819 -22.54641548 4.68869966 -16.3125 2.8125 C-15.43924072 2.55049805 -14.56598145 2.28849609 -13.66625977 2.01855469 C-3.42274603 -1.06223153 -3.42274603 -1.06223153 0 0 Z " fill="#505CCF" transform="translate(241,265)"/>
<path d="M0 0 C1.32462923 0.66908675 2.63792038 1.36091538 3.94140625 2.0703125 C14.23519684 7.67027956 25.17639468 11.72088956 36.7109375 13.78515625 C39.17802481 14.28093456 41.50645131 14.97347847 43.91015625 15.71484375 C64.63176218 21.32456027 85.89768751 20.6308119 107.16015625 20.27734375 C107.16015625 20.60734375 107.16015625 20.93734375 107.16015625 21.27734375 C102.03225925 22.11602635 97.03071442 22.44947777 91.83203125 22.48046875 C91.04894089 22.48734711 90.26585052 22.49422546 89.45903015 22.50131226 C86.94269119 22.51841442 84.42655025 22.52476692 81.91015625 22.52734375 C81.05688751 22.5290155 80.20361877 22.53068726 79.32449341 22.53240967 C50.91550458 22.53575722 50.91550458 22.53575722 38.16015625 17.27734375 C36.43685797 16.85669614 34.70691772 16.46272248 32.97265625 16.08984375 C21.00281676 13.16749083 9.41859486 8.36697524 -1.26171875 2.24609375 C-4.51714871 1.02284128 -6.5025114 1.45918887 -9.83984375 2.27734375 C-10.62359375 2.46296875 -11.40734375 2.64859375 -12.21484375 2.83984375 C-12.75109375 2.98421875 -13.28734375 3.12859375 -13.83984375 3.27734375 C-13.83984375 2.61734375 -13.83984375 1.95734375 -13.83984375 1.27734375 C-9.29082041 -0.92824332 -4.8691219 -1.91250011 0 0 Z " fill="#5964CA" transform="translate(161.83984375,409.72265625)"/>
<path d="M0 0 C0.79484802 -0.00199402 1.58969604 -0.00398804 2.40863037 -0.00604248 C11.22887975 -0.00353783 19.95957714 0.35278953 28.734375 1.2734375 C29.49534485 1.35042877 30.2563147 1.42742004 31.04034424 1.50674438 C34.64041838 1.92532301 36.68199569 2.32966379 39.75 4.375 C38.33654297 4.26671875 38.33654297 4.26671875 36.89453125 4.15625 C26.12267172 3.42328446 15.35147355 3.23858614 4.55819702 3.19775391 C2.9605424 3.19102112 1.36289778 3.18087671 -0.23471069 3.16699219 C-13.44714465 3.06153277 -26.22025271 4.1267051 -39.25 6.375 C-39.25 7.035 -39.25 7.695 -39.25 8.375 C-42.29440276 9.89720138 -45.47471986 9.76316176 -48.83984375 9.99609375 C-51.50530027 10.24277079 -51.50530027 10.24277079 -54.25 12.375 C-56.94921875 12.7890625 -56.94921875 12.7890625 -59.9375 13 C-60.93136719 13.07476562 -61.92523438 13.14953125 -62.94921875 13.2265625 C-63.70847656 13.27554688 -64.46773437 13.32453125 -65.25 13.375 C-59.0676061 7.7440088 -49.10764227 6.44316465 -41.25 4.375 C-40.02410156 4.04653076 -40.02410156 4.04653076 -38.7734375 3.71142578 C-25.92723503 0.42403236 -13.18357857 0.00868039 0 0 Z " fill="#5D68CA" transform="translate(243.25,74.625)"/>
<path d="M0 0 C0.99 0.33 1.98 0.66 3 1 C-17.06700114 16.61971981 -39.2269879 27.87139471 -64 34 C-65.21429688 34.31582031 -66.42859375 34.63164062 -67.6796875 34.95703125 C-73.22764935 36.3345864 -78.28028038 37.39905021 -84 37 C-82 34 -82 34 -80.1875 33.59375 C-79.465625 33.5628125 -78.74375 33.531875 -78 33.5 C-74.52252637 33.22823571 -71.50515337 32.6397994 -68.1875 31.5625 C-64.38442591 30.33436219 -60.70408153 29.58162633 -56.75 29 C-51.36211787 28.16418752 -47.23045224 26.88194408 -43 23.3125 C-40.27850306 21.52651763 -38.18290433 21.7829838 -35 22 C-35 21.34 -35 20.68 -35 20 C-33.5459375 19.5359375 -33.5459375 19.5359375 -32.0625 19.0625 C-29.15934208 18.30476658 -29.15934208 18.30476658 -28 17 C-26.33382885 16.95936168 -24.66611905 16.957279 -23 17 C-22.67 15.68 -22.34 14.36 -22 13 C-20.68 13 -19.36 13 -18 13 C-18 12.34 -18 11.68 -18 11 C-15.03 10.505 -15.03 10.505 -12 10 C-12 9.01 -12 8.02 -12 7 C-10.35 7 -8.7 7 -7 7 C-6.34 5.35 -5.68 3.7 -5 2 C-3.35 2 -1.7 2 0 2 C0 1.34 0 0.68 0 0 Z " fill="#515ECD" transform="translate(355,393)"/>
<path d="M0 0 C0.66 0.33 1.32 0.66 2 1 C1.67 1.66 1.34 2.32 1 3 C0.34 3 -0.32 3 -1 3 C-1.25652344 3.5465625 -1.51304687 4.093125 -1.77734375 4.65625 C-3.72531446 8.39037915 -6.12146166 11.83248251 -8.44140625 15.34375 C-9.80142458 17.66157572 -10.54902317 19.38062774 -11 22 C-10.443125 22.268125 -9.88625 22.53625 -9.3125 22.8125 C-6.80287477 24.10122647 -4.40665764 25.52926478 -2 27 C-2.99 27.33 -3.98 27.66 -5 28 C-5 27.34 -5 26.68 -5 26 C-5.598125 25.855625 -6.19625 25.71125 -6.8125 25.5625 C-8.56150404 25.1127561 -10.28677023 24.57107659 -12 24 C-12.62457273 20.56484998 -13 17.50935186 -13 14 C-13.99 15.65 -14.98 17.3 -16 19 C-16.33 18.34 -16.66 17.68 -17 17 C-17.99 17 -18.98 17 -20 17 C-20.2371875 17.59296875 -20.474375 18.1859375 -20.71875 18.796875 C-22.27973346 21.48100509 -23.89976621 22.57842113 -26.5 24.25 C-27.2940625 24.77078125 -28.088125 25.2915625 -28.90625 25.828125 C-31 27 -31 27 -33 27 C-33 27.66 -33 28.32 -33 29 C-34.32 28.67 -35.64 28.34 -37 28 C-25.36514572 17.60054229 -12.99816359 8.61128338 0 0 Z " fill="#4151E1" transform="translate(218,294)"/>
<path d="M0 0 C-1.72562521 4.25093038 -4.75442462 7.35670956 -7.75 10.75 C-11.19571607 14.69485705 -14.56018746 18.62085722 -17.625 22.875 C-18.40875 23.90625 -19.1925 24.9375 -20 26 C-20.66 26 -21.32 26 -22 26 C-22.2475 26.5775 -22.495 27.155 -22.75 27.75 C-24.16683317 30.3002997 -25.87627537 32.01785701 -28 34 C-28 33.01 -28 32.02 -28 31 C-27.34 31 -26.68 31 -26 31 C-25.9175 30.236875 -25.835 29.47375 -25.75 28.6875 C-24.83525863 25.40967674 -23.68583797 24.93044604 -21 23 C-20.835 22.319375 -20.67 21.63875 -20.5 20.9375 C-20 19 -20 19 -17.9375 17.75 C-17.298125 17.5025 -16.65875 17.255 -16 17 C-16 16.01 -16 15.02 -16 14 C-15.34 14 -14.68 14 -14 14 C-13.67 12.35 -13.34 10.7 -13 9 C-17.95 8.67 -22.9 8.34 -28 8 C-24.528625 5.68575 -21.18410107 4.92758828 -17.1875 4 C-13.29111447 3.08066848 -9.47133872 2.15951299 -5.67578125 0.875 C-3 0 -3 0 0 0 Z " fill="#4351E2" transform="translate(441,129)"/>
<path d="M0 0 C1.04449911 3.13349732 0.93423645 3.98968256 0 7 C-0.66 7 -1.32 7 -2 7 C-2.33 8.65 -2.66 10.3 -3 12 C-3.99 12.33 -4.98 12.66 -6 13 C-6.55783548 16.26732209 -7.06890888 19.5254302 -7.5 22.8125 C-8 26 -8 26 -9 27 C-9.52257862 33.14029883 -7.95714283 38.21011912 -6 44 C-2.61363691 44.74515899 0.61943103 45.16770563 4.08203125 45.31640625 C5.01337891 45.35830078 5.94472656 45.40019531 6.90429688 45.44335938 C7.86400391 45.48267578 8.82371094 45.52199219 9.8125 45.5625 C11.28106445 45.62727539 11.28106445 45.62727539 12.77929688 45.69335938 C15.18607027 45.7990226 17.59293983 45.90112327 20 46 C20 46.33 20 46.66 20 47 C11.03335501 48.65351924 2.36329238 49.26105646 -6.09765625 45.4609375 C-9.95807664 42.49626147 -11.7674411 39.21958216 -12.671875 34.4765625 C-12.95018597 20.75583178 -7.59061757 11.11239059 0 0 Z " fill="#5B65CD" transform="translate(38,298)"/>
<path d="M0 0 C1.66675781 0.0009668 1.66675781 0.0009668 3.3671875 0.00195312 C9.96784064 0.03689776 16.44783086 0.38419371 23 1.1875 C23 1.8475 23 2.5075 23 3.1875 C24.1034375 3.1153125 25.206875 3.043125 26.34375 2.96875 C31.80233335 2.96875 36.44460145 4.78437758 41.5 6.6875 C42.87671875 7.18830078 42.87671875 7.18830078 44.28125 7.69921875 C46.52527086 8.51735136 48.7643252 9.34688628 51 10.1875 C51 10.8475 51 11.5075 51 12.1875 C51.99 12.1875 52.98 12.1875 54 12.1875 C54 12.8475 54 13.5075 54 14.1875 C51.07178226 13.25150078 48.2251692 12.28749961 45.4140625 11.0390625 C23.30867283 1.31764464 -1.46288177 2.34660807 -25 4.1875 C-19.24149311 -1.57100689 -7.53443769 -0.08303615 0 0 Z " fill="#4D59CB" transform="translate(275,105.8125)"/>
<path d="M0 0 C0.33 0 0.66 0 1 0 C5.77095055 30.80392981 4.59665263 59.18515688 -5 89 C-5.33 89 -5.66 89 -6 89 C-6.125 81.375 -6.125 81.375 -5 78 C-4.34 78 -3.68 78 -3 78 C-2.81824219 76.16888672 -2.81824219 76.16888672 -2.6328125 74.30078125 C-2.46371641 72.63800305 -2.29443547 70.97524365 -2.125 69.3125 C-2.04636719 68.51521484 -1.96773438 67.71792969 -1.88671875 66.89648438 C-1.39803566 62.14122195 -0.74689804 57.45859713 0.05859375 52.74609375 C1.16339627 45.72233757 1.26078994 38.84755174 1.1875 31.75 C1.18685547 30.54859375 1.18621094 29.3471875 1.18554688 28.109375 C1.15368605 21.6522477 0.79659327 15.40435702 0 9 C-0.10330915 5.98750529 -0.04787308 3.01600414 0 0 Z " fill="#616BC9" transform="translate(424,220)"/>
<path d="M0 0 C0.495 1.485 0.495 1.485 1 3 C0.01 3.66 -0.98 4.32 -2 5 C-2.33 5.99 -2.66 6.98 -3 8 C-3.99 8.33 -4.98 8.66 -6 9 C-6.45375 9.928125 -6.9075 10.85625 -7.375 11.8125 C-9 15 -9 15 -11.5625 17 C-14.51050093 19.41887256 -15.08950918 21.3580367 -16 25 C-17.051875 25.12375 -17.051875 25.12375 -18.125 25.25 C-22.98357846 26.51745525 -26.22923754 28.84385631 -29 33 C-30.32 32.67 -31.64 32.34 -33 32 C-32.55269531 31.56429688 -32.10539062 31.12859375 -31.64453125 30.6796875 C-28.79624253 27.87391056 -26.08707804 25.10717297 -23.5625 22 C-21.00545486 19.00638618 -18.3182452 16.61353838 -15.328125 14.07421875 C-11.96419371 11.07715916 -8.82510505 7.86908815 -5.68115234 4.64379883 C-2.20324124 1.10162062 -2.20324124 1.10162062 0 0 Z " fill="#424FE6" transform="translate(158,343)"/>
<path d="M0 0 C0.33 0 0.66 0 1 0 C1 2.64 1 5.28 1 8 C0.34 8 -0.32 8 -1 8 C-0.87625 8.99 -0.87625 8.99 -0.75 10 C-1.10103641 14.21243694 -2.96960773 17.34710677 -5 21 C-5.66 21 -6.32 21 -7 21 C-7.0825 21.94875 -7.165 22.8975 -7.25 23.875 C-8 27 -8 27 -10.0625 28.375 C-10.701875 28.58125 -11.34125 28.7875 -12 29 C-12 29.66 -12 30.32 -12 31 C-11.34 31.33 -10.68 31.66 -10 32 C-16 36 -16 36 -20 36 C-20.33 36.99 -20.66 37.98 -21 39 C-21.66 38.67 -22.32 38.34 -23 38 C-22.34 37.01 -21.68 36.02 -21 35 C-20.34 35 -19.68 35 -19 35 C-18.7525 34.443125 -18.505 33.88625 -18.25 33.3125 C-17 31 -17 31 -15.25 28.9375 C-8.91649286 20.66875457 -3.29143438 9.87430314 0 0 Z " fill="#525DD3" transform="translate(388,259)"/>
<path d="M0 0 C0.33 0.66 0.66 1.32 1 2 C0.67 2.66 0.34 3.32 0 4 C-0.09800068 6.24825087 -0.12974764 8.49961924 -0.125 10.75 C-0.12757813 11.96171875 -0.13015625 13.1734375 -0.1328125 14.421875 C-0.01077361 17.70974633 0.37658319 20.77406537 1 24 C1.99 24 2.98 24 4 24 C4 23.01 4 22.02 4 21 C4.66 21 5.32 21 6 21 C6.66 19.68 7.32 18.36 8 17 C8.66 17 9.32 17 10 17 C10.33 15.35 10.66 13.7 11 12 C11.66 12 12.32 12 13 12 C13 11.34 13 10.68 13 10 C13.99 10 14.98 10 16 10 C16.33 8.68 16.66 7.36 17 6 C18.32 5.67 19.64 5.34 21 5 C19.46896744 8.56149285 17.32736123 10.9951691 14.6875 13.8125 C11.92642163 16.8088471 9.35452228 19.75559 7.0625 23.125 C6.381875 24.07375 5.70125 25.0225 5 26 C4.34 26 3.68 26 3 26 C2.34 27.32 1.68 28.64 1 30 C0.34 30 -0.32 30 -1 30 C-4.06192358 9.98814229 -4.06192358 9.98814229 -3 3 C-1.48046875 1.171875 -1.48046875 1.171875 0 0 Z " fill="#545CCC" transform="translate(364,191)"/>
<path d="M0 0 C1.109375 3.734375 1.109375 3.734375 0.125 6.125 C-1.51210274 10.30870701 -1.67134941 14.54591969 -2 19 C-1.34 19 -0.68 19 0 19 C0.33 19.66 0.66 20.32 1 21 C7.64428724 22.81084058 14.34460091 21.85644297 21 20.6875 C21.74185547 20.55770752 22.48371094 20.42791504 23.24804688 20.29418945 C26.7250947 19.62807457 29.01941428 18.98705715 32 17 C34.33199388 16.92094936 36.66832622 16.91201231 39 17 C34.61603859 19.3893123 29.93381876 20.62928587 25.16796875 22.046875 C22.92638888 22.72128374 20.70446222 23.46269207 18.5 24.25 C12.26570971 25.58591935 5.0105803 26.48040932 -0.8359375 23.60546875 C-3 22 -3 22 -4 20 C-4.79371484 12.38814452 -3.69245336 6.67608754 0 0 Z " fill="#6B74CD" transform="translate(109,396)"/>
<path d="M0 0 C10.80495003 6.27510709 19.98288233 14.44652846 29 23 C25.9530371 24.69433918 23.17178534 25.49467112 19.75 26.125 C18.85796875 26.29257813 17.9659375 26.46015625 17.046875 26.6328125 C16.37140625 26.75398438 15.6959375 26.87515625 15 27 C18.75 23.125 18.75 23.125 21 22 C21.33 21.01 21.66 20.02 22 19 C21.34 19 20.68 19 20 19 C19.34 18.01 18.68 17.02 18 16 C16.03638136 15.42251197 16.03638136 15.42251197 13.875 15.3125 C12.59625 15.209375 11.3175 15.10625 10 15 C8.875 11.25 8.875 11.25 10 9 C9.01 9 8.02 9 7 9 C7 8.01 7 7.02 7 6 C6.01 6 5.02 6 4 6 C4 5.34 4 4.68 4 4 C2.68 3.34 1.36 2.68 0 2 C0 1.34 0 0.68 0 0 Z " fill="#525DC7" transform="translate(345,104)"/>
<path d="M0 0 C0.33 0 0.66 0 1 0 C1.00907838 7.47529939 0.97186946 14.9493374 0.90234375 22.42431641 C0.88416615 24.96755674 0.8766184 27.51089602 0.87988281 30.05419922 C0.88273462 33.70878934 0.84747038 37.36131966 0.8046875 41.015625 C0.8183284 42.72362274 0.8183284 42.72362274 0.83224487 44.46612549 C0.69135955 52.10380657 0.69135955 52.10380657 -1.28363037 54.66394043 C-2.86279297 55.81152344 -2.86279297 55.81152344 -6 57 C-6.99 56.67 -7.98 56.34 -9 56 C-3.25 51 -3.25 51 -1 51 C-1.16153564 50.17798096 -1.32307129 49.35596191 -1.48950195 48.5090332 C-2.05718594 44.60691846 -2.16195876 40.78853397 -2.16796875 36.85546875 C-2.17129715 36.08624588 -2.17462555 35.31702301 -2.17805481 34.52449036 C-2.18309624 32.90329583 -2.185464 31.28209103 -2.18530273 29.66088867 C-2.18748411 27.20538869 -2.20565525 24.75034227 -2.22460938 22.29492188 C-2.25136472 14.59026575 -2.19150325 7.4580407 0 0 Z " fill="#4752CF" transform="translate(65,225)"/>
<path d="M0 0 C-1.65 0.66 -3.3 1.32 -5 2 C-5 2.66 -5 3.32 -5 4 C-10.21928145 5.06423526 -15.43994002 6.08422083 -20.6875 7 C-24.89621276 7.75326393 -28.91902823 8.73036434 -33 10 C-32.67 11.98 -32.34 13.96 -32 16 C-35.59391114 14.66511872 -38.75490696 13.03977277 -42 11 C-41.67 10.34 -41.34 9.68 -41 9 C-38.67089844 8.25390625 -38.67089844 8.25390625 -35.609375 7.5625 C-34.50722656 7.30726563 -33.40507812 7.05203125 -32.26953125 6.7890625 C-31.10808594 6.52867187 -29.94664062 6.26828125 -28.75 6 C-26.47316324 5.48265351 -24.19708877 4.9619381 -21.921875 4.4375 C-20.90706055 4.20933594 -19.89224609 3.98117188 -18.84667969 3.74609375 C-16.10962936 3.02873305 -13.60743037 2.08905956 -11 1 C-9.44778477 0.56558297 -7.88477361 0.16752953 -6.3125 -0.1875 C-5.16201172 -0.45626953 -5.16201172 -0.45626953 -3.98828125 -0.73046875 C-2 -1 -2 -1 0 0 Z " fill="#616BC9" transform="translate(359,151)"/>
<path d="M0 0 C-0.71800781 0.1959375 -1.43601563 0.391875 -2.17578125 0.59375 C-17.4368593 5.00292822 -32.58062559 10.80392791 -45.16015625 20.69921875 C-47 22 -47 22 -49 22 C-48 20 -47 18 -46 16 C-44.35 16 -42.7 16 -41 16 C-41 15.34 -41 14.68 -41 14 C-39.02 13.34 -37.04 12.68 -35 12 C-35 11.34 -35 10.68 -35 10 C-32.09399739 8.74335022 -30.20395416 8 -27 8 C-27 7.34 -27 6.68 -27 6 C-19.34961956 1.38156757 -8.91164857 -2.97054952 0 0 Z " fill="#5460CB" transform="translate(250,111)"/>
<path d="M0 0 C0.66 0.33 1.32 0.66 2 1 C0.61663187 7.54439541 -1.70897156 13.18165462 -4.625 19.1875 C-5.06577881 20.10426514 -5.50655762 21.02103027 -5.96069336 21.96557617 C-9.51423707 29.24352551 -13.30032844 36.38610191 -18 43 C-18.33 43 -18.66 43 -19 43 C-19 41.35 -19 39.7 -19 38 C-18.34 38 -17.68 38 -17 38 C-16.67 36.68 -16.34 35.36 -16 34 C-15.34 34 -14.68 34 -14 34 C-14 31.69 -14 29.38 -14 27 C-13.34 26.67 -12.68 26.34 -12 26 C-11.505 25.154375 -11.01 24.30875 -10.5 23.4375 C-10.005 22.633125 -9.51 21.82875 -9 21 C-8.34 21 -7.68 21 -7 21 C-6.96132813 20.14728516 -6.96132813 20.14728516 -6.921875 19.27734375 C-6.49066925 13.40706545 -5.14185376 9.95079987 -2 5 C-1.29713697 3.34827188 -0.61344757 1.68698082 0 0 Z " fill="#5561CF" transform="translate(416,309)"/>
<path d="M0 0 C-0.33 0.66 -0.66 1.32 -1 2 C-1.66 2 -2.32 2 -3 2 C-3 2.66 -3 3.32 -3 4 C-7.96993194 6.43425238 -11.34605369 7.34615998 -17 7 C-17.33 7.99 -17.66 8.98 -18 10 C-22.96998111 12.30469156 -27.9956757 12.41909285 -33.375 12.625 C-34.20644531 12.66367187 -35.03789062 12.70234375 -35.89453125 12.7421875 C-37.92935156 12.83574246 -39.96464416 12.91892713 -42 13 C-39.12430574 11.41771161 -36.60323658 10.61456 -33.375 10.0625 C-25.04743901 8.475135 -17.79069613 6.06088116 -10.265625 2.14453125 C-3.02572899 -1.51286449 -3.02572899 -1.51286449 0 0 Z " fill="#606BD5" transform="translate(335,323)"/>
<path d="M0 0 C-2.60060504 1.34070318 -5.20504916 2.67273354 -7.8125 4 C-8.55048828 4.3815625 -9.28847656 4.763125 -10.04882812 5.15625 C-10.76103516 5.5171875 -11.47324219 5.878125 -12.20703125 6.25 C-13.18893433 6.75273437 -13.18893433 6.75273437 -14.19067383 7.265625 C-16 8 -16 8 -19 8 C-19 8.66 -19 9.32 -19 10 C-19.83402344 10.31453125 -20.66804688 10.6290625 -21.52734375 10.953125 C-26.72715555 12.93060211 -31.89289639 14.90045859 -36.9375 17.25 C-40.26929548 18.77451158 -43.32574876 19.62315372 -47 20 C-47 20.66 -47 21.32 -47 22 C-48.98 22.33 -50.96 22.66 -53 23 C-49.25460417 18.94054924 -44.54214156 16.21184513 -39 15.75 C-38.34 15.8325 -37.68 15.915 -37 16 C-37 15.34 -37 14.68 -37 14 C-35.08717875 13.15787744 -33.16957527 12.32661136 -31.25 11.5 C-30.18265625 11.0359375 -29.1153125 10.571875 -28.015625 10.09375 C-25 9 -25 9 -21 9 C-21 8.34 -21 7.68 -21 7 C-19.3767313 6.3291288 -17.75132422 5.66342971 -16.125 5 C-15.22007812 4.62875 -14.31515625 4.2575 -13.3828125 3.875 C-11 3 -11 3 -9 3 C-9 2.34 -9 1.68 -9 1 C-3.375 -1.125 -3.375 -1.125 0 0 Z " fill="#5A65C9" transform="translate(165,305)"/>
<path d="M0 0 C0.33 0 0.66 0 1 0 C1.33833451 4.84946127 0.46493166 6.92338226 -2 11 C-2.35090633 12.51243348 -2.66042014 14.03481645 -2.9375 15.5625 C-3.71320435 19.51990696 -4.79186852 21.41279719 -8 24 C-8.33 24.66 -8.66 25.32 -9 26 C-9.66 26 -10.32 26 -11 26 C-11 26.99 -11 27.98 -11 29 C-11.66 29 -12.32 29 -13 29 C-12.4284057 23.48631345 -10.43558568 19.11427789 -8.0625 14.1875 C-7.70220703 13.41212891 -7.34191406 12.63675781 -6.97070312 11.83789062 C-4.2587941 6.12939705 -4.2587941 6.12939705 -2 5 C-1.27840576 3.35636866 -0.60648579 1.68949614 0 0 Z " fill="#4B57D6" transform="translate(88,162)"/>
<path d="M0 0 C-0.33 0.66 -0.66 1.32 -1 2 C-2.890625 2.34375 -2.890625 2.34375 -5.25 2.5 C-7.90861735 2.67843069 -9.81190902 2.91455045 -12.25170898 4.02294922 C-15.51377222 5.18265226 -17.94262182 5.1401601 -21.39453125 4.9765625 C-23.19760742 4.89921875 -23.19760742 4.89921875 -25.03710938 4.8203125 C-26.28298828 4.75585938 -27.52886719 4.69140625 -28.8125 4.625 C-30.07771484 4.56828125 -31.34292969 4.5115625 -32.64648438 4.453125 C-35.76491646 4.31191298 -38.88251205 4.16052192 -42 4 C-42.33 3.34 -42.66 2.68 -43 2 C-38.00136185 1.71263849 -33.00258376 1.42789478 -28.00366211 1.14550781 C-26.30537961 1.04921095 -24.60713652 0.95221622 -22.90893555 0.85449219 C-20.45892364 0.71362908 -18.00877795 0.5753298 -15.55859375 0.4375 C-14.80726669 0.39375244 -14.05593964 0.35000488 -13.28184509 0.30493164 C-8.84628882 0.05833095 -4.44245503 -0.04096788 0 0 Z " fill="#4856D8" transform="translate(307,335)"/>
<path d="M0 0 C0 5.0661606 -0.24425134 10.12553877 -0.4375 15.1875 C-0.47681641 16.29931641 -0.51613281 17.41113281 -0.55664062 18.55664062 C-1.19100307 35.0403047 -1.19100307 35.0403047 -3.9375 40.9375 C-4.27652344 41.68902344 -4.61554688 42.44054687 -4.96484375 43.21484375 C-6 45 -6 45 -8 46 C-7.72285156 45.07445312 -7.44570313 44.14890625 -7.16015625 43.1953125 C-4.24523954 32.65769446 -3.4830323 22.57659639 -3.41625977 11.64892578 C-3.40135498 10.5711084 -3.3864502 9.49329102 -3.37109375 8.3828125 C-3.37036865 7.41746582 -3.36964355 6.45211914 -3.36889648 5.45751953 C-2.94279303 2.61889785 -2.21789313 1.74747539 0 0 Z " fill="#5E69D2" transform="translate(397,212)"/>
<path d="M0 0 C0.66 0.99 1.32 1.98 2 3 C-3.625 8 -3.625 8 -7 8 C-7 8.66 -7 9.32 -7 10 C-7.804375 10.28875 -8.60875 10.5775 -9.4375 10.875 C-12.1326468 11.73262568 -12.1326468 11.73262568 -13 14 C-13.99 14 -14.98 14 -16 14 C-16.20625 14.9075 -16.4125 15.815 -16.625 16.75 C-18.3399216 20.80345105 -20.1235201 22.02220413 -24 24 C-24.99 23.67 -25.98 23.34 -27 23 C-25.88121617 21.82737096 -24.75476949 20.66204862 -23.625 19.5 C-22.99851562 18.8503125 -22.37203125 18.200625 -21.7265625 17.53125 C-20 16 -20 16 -18 16 C-17.67 15.01 -17.34 14.02 -17 13 C-16.34 13 -15.68 13 -15 13 C-14.67 12.01 -14.34 11.02 -14 10 C-12.60131836 8.74145508 -12.60131836 8.74145508 -10.83984375 7.51953125 C-10.21142578 7.07802734 -9.58300781 6.63652344 -8.93554688 6.18164062 C-8.27619141 5.72982422 -7.61683594 5.27800781 -6.9375 4.8125 C-6.27427734 4.34908203 -5.61105469 3.88566406 -4.92773438 3.40820312 C-3.28992495 2.26527137 -1.64557103 1.1317282 0 0 Z " fill="#6772CC" transform="translate(139,108)"/>
<path d="M0 0 C0 2 0 2 -1.3125 3.625 C-3 5 -3 5 -6 5 C-6.33 5.99 -6.66 6.98 -7 8 C-9 7 -9 7 -10 5 C-19.405 5.495 -19.405 5.495 -29 6 C-25.60342747 3.73561832 -22.34000471 2.8461219 -18.4375 1.875 C-17.72529297 1.69614258 -17.01308594 1.51728516 -16.27929688 1.33300781 C-10.80020986 0.03141474 -5.63534489 -0.48767408 0 0 Z " fill="#4A5ADD" transform="translate(211,276)"/>
<path d="M0 0 C-1.67229701 3.95969176 -4.36304994 7.0161201 -7.125 10.25 C-7.59292969 10.80429688 -8.06085938 11.35859375 -8.54296875 11.9296875 C-9.69175328 13.28947326 -10.84539653 14.64515165 -12 16 C-12.33 15.01 -12.66 14.02 -13 13 C-11.78515625 10.95703125 -11.78515625 10.95703125 -10.0625 8.8125 C-9.49660156 8.09707031 -8.93070312 7.38164062 -8.34765625 6.64453125 C-7.90292969 6.10183594 -7.45820313 5.55914062 -7 5 C-7.680625 5.144375 -8.36125 5.28875 -9.0625 5.4375 C-11.27934808 5.86200282 -13.51267367 6.20168982 -15.75 6.5 C-18.84543904 6.64831782 -18.84543904 6.64831782 -20 8 C-22.67058851 8.14115161 -25.32432238 8.04247107 -28 8 C-24.528625 5.68575 -21.18410107 4.92758828 -17.1875 4 C-13.29111447 3.08066848 -9.47133872 2.15951299 -5.67578125 0.875 C-3 0 -3 0 0 0 Z " fill="#5963CA" transform="translate(441,129)"/>
<path d="M0 0 C0.66 0 1.32 0 2 0 C1.5875 1.2375 1.175 2.475 0.75 3.75 C-3.46409578 17.93745579 -5.61733086 32.2289711 -6 47 C-6.33 47 -6.66 47 -7 47 C-8.21770477 17.37542861 -8.21770477 17.37542861 -1 3 C-0.67 2.01 -0.34 1.02 0 0 Z " fill="#525DCD" transform="translate(163,180)"/>
<path d="M0 0 C2 1 2 1 2.78125 2.890625 C3.0184375 3.66921875 3.255625 4.4478125 3.5 5.25 C4.27609135 7.73037235 5.04524458 10.10645784 6.0625 12.5 C7.9766057 17.60428188 9.70474819 22.668128 8 28 C6.4142397 23.96351923 4.94248606 20.03344147 3.9375 15.8125 C3.17199008 12.69942632 2.28042768 9.92669183 1 7 C-1.47266765 7.34444881 -1.47266765 7.34444881 -4 8 C-4.33 8.66 -4.66 9.32 -5 10 C-5.99 9.67 -6.98 9.34 -8 9 C-5.36 6.03 -2.72 3.06 0 0 Z " fill="#5F69CB" transform="translate(415,191)"/>
<path d="M0 0 C0.99 0 1.98 0 3 0 C1.36966398 3.78310016 -1.03801906 6.61768869 -3.6875 9.75 C-4.13158203 10.277146 -4.57566406 10.80429199 -5.03320312 11.34741211 C-8.17885477 15.07010699 -11.375363 18.7464995 -14.625 22.37890625 C-16.19218686 24.16349644 -16.19218686 24.16349644 -18 27 C-18.66 27 -19.32 27 -20 27 C-20.33 25.35 -20.66 23.7 -21 22 C-19.68 22 -18.36 22 -17 22 C-17 21.34 -17 20.68 -17 20 C-15.6875 18.375 -15.6875 18.375 -14 17 C-13.01 17 -12.02 17 -11 17 C-10.71125 16.278125 -10.4225 15.55625 -10.125 14.8125 C-9.75375 13.884375 -9.3825 12.95625 -9 12 C-8.690625 11.0925 -8.38125 10.185 -8.0625 9.25 C-7.711875 8.5075 -7.36125 7.765 -7 7 C-6.01 6.67 -5.02 6.34 -4 6 C-3.67 5.34 -3.34 4.68 -3 4 C-2.34 4 -1.68 4 -1 4 C-0.67 2.68 -0.34 1.36 0 0 Z " fill="#5864CB" transform="translate(408,165)"/>
<path d="M0 0 C0.99 0.33 1.98 0.66 3 1 C1.92544498 4.22366505 1.29693158 4.82638112 -1.25 6.875 C-3.44921861 8.68980235 -5.47815761 10.47815761 -7.5 12.5 C-10.5011713 15.5011713 -13.57122988 18.48672014 -17 21 C-17.66 21 -18.32 21 -19 21 C-18.34 19.02 -17.68 17.04 -17 15 C-15.68 15 -14.36 15 -13 15 C-13 14.01 -13 13.02 -13 12 C-11.68 12 -10.36 12 -9 12 C-9 11.01 -9 10.02 -9 9 C-8.34 8.34 -7.68 7.68 -7 7 C-6.01 7 -5.02 7 -4 7 C-3.71125 6.401875 -3.4225 5.80375 -3.125 5.1875 C-2 3 -2 3 0 0 Z " fill="#4F5CD0" transform="translate(377,372)"/>
<path d="M0 0 C0.66 0.33 1.32 0.66 2 1 C1.67 1.66 1.34 2.32 1 3 C0.34 3 -0.32 3 -1 3 C-1.2475 3.53625 -1.495 4.0725 -1.75 4.625 C-3.29696975 7.56424252 -5.13014369 10.25754408 -7 13 C-7.33 12.01 -7.66 11.02 -8 10 C-11.01422657 11.47206414 -13.91781643 12.94770137 -16.75 14.75 C-17.86375 15.36875 -17.86375 15.36875 -19 16 C-19.66 15.67 -20.32 15.34 -21 15 C-18.44052949 13.05847229 -15.87689687 11.12251487 -13.3125 9.1875 C-12.59126953 8.64029297 -11.87003906 8.09308594 -11.12695312 7.52929688 C-3.35764201 1.67570631 -3.35764201 1.67570631 0 0 Z " fill="#4956C6" transform="translate(218,294)"/>
<path d="M0 0 C-1.95519384 1.17192047 -3.9142539 2.3373929 -5.875 3.5 C-6.96554688 4.1496875 -8.05609375 4.799375 -9.1796875 5.46875 C-12 7 -12 7 -14 7 C-14 6.34 -14 5.68 -14 5 C-15.7634375 5.7425 -15.7634375 5.7425 -17.5625 6.5 C-21.59220111 8.02999347 -24.72138314 8.26741355 -29 8 C-26.76655369 5.76655369 -25.52368216 5.39444222 -22.53515625 4.52734375 C-21.21161133 4.13772461 -21.21161133 4.13772461 -19.86132812 3.74023438 C-18.4759082 3.34288086 -18.4759082 3.34288086 -17.0625 2.9375 C-15.24082153 2.40516649 -13.41920432 1.87262331 -11.59765625 1.33984375 C-10.78820557 1.10644287 -9.97875488 0.87304199 -9.14477539 0.63256836 C-3.41089077 -1.05855231 -3.41089077 -1.05855231 0 0 Z " fill="#5B67C3" transform="translate(241,265)"/>
<path d="M0 0 C-2.58122191 1.72081461 -4.28448728 2.53547641 -7.16796875 3.4375 C-7.97943359 3.69273437 -8.79089844 3.94796875 -9.62695312 4.2109375 C-10.47193359 4.47132813 -11.31691406 4.73171875 -12.1875 5 C-13.01314453 5.26039063 -13.83878906 5.52078125 -14.68945312 5.7890625 C-29.32100592 10.35493713 -29.32100592 10.35493713 -35 10 C-34.67 9.01 -34.34 8.02 -34 7 C-30.7 6.67 -27.4 6.34 -24 6 C-24 5.67 -24 5.34 -24 5 C-21.36 5 -18.72 5 -16 5 C-16 4.34 -16 3.68 -16 3 C-5.62642369 -0.44419134 -5.62642369 -0.44419134 0 0 Z " fill="#5661CB" transform="translate(96,334)"/>
<path d="M0 0 C0.33 0.99 0.66 1.98 1 3 C0.34 3 -0.32 3 -1 3 C-1.0825 3.94875 -1.165 4.8975 -1.25 5.875 C-2 9 -2 9 -4.0625 10.375 C-4.701875 10.58125 -5.34125 10.7875 -6 11 C-6 11.66 -6 12.32 -6 13 C-5.34 13.33 -4.68 13.66 -4 14 C-10 18 -10 18 -14 18 C-14.33 18.99 -14.66 19.98 -15 21 C-15.66 20.67 -16.32 20.34 -17 20 C-16.01 18.515 -16.01 18.515 -15 17 C-14.34 17 -13.68 17 -13 17 C-12.731875 16.4225 -12.46375 15.845 -12.1875 15.25 C-10.9611378 12.92636635 -9.75156566 10.96175354 -8 9 C-7.01 9 -6.02 9 -5 9 C-4.67 8.01 -4.34 7.02 -4 6 C-3.34 6 -2.68 6 -2 6 C-1.855625 5.195625 -1.71125 4.39125 -1.5625 3.5625 C-1 1 -1 1 0 0 Z " fill="#4150E5" transform="translate(382,277)"/>
<path d="M0 0 C0.33 0.99 0.66 1.98 1 3 C0.401875 3.556875 -0.19625 4.11375 -0.8125 4.6875 C-3.87487659 7.92486954 -5.68674828 10.79518571 -6.8125 15.125 C-8 18 -8 18 -11 19.9375 C-12.485 20.4634375 -12.485 20.4634375 -14 21 C-14.66 20.67 -15.32 20.34 -16 20 C-4.76595745 4.76595745 -4.76595745 4.76595745 0 0 Z " fill="#4753D9" transform="translate(111,132)"/>
<path d="M0 0 C0.69140625 1.671875 0.69140625 1.671875 1 4 C-0.22265625 6.578125 -0.22265625 6.578125 -2.0625 9.25 C-2.65160156 10.14203125 -3.24070312 11.0340625 -3.84765625 11.953125 C-6 14 -6 14 -9.24609375 14.296875 C-10.15488281 14.19890625 -11.06367188 14.1009375 -12 14 C-12.33 14.99 -12.66 15.98 -13 17 C-13.66 16.34 -14.32 15.68 -15 15 C-14.34 15 -13.68 15 -13 15 C-12.67 14.01 -12.34 13.02 -12 12 C-11.34 12 -10.68 12 -10 12 C-9.75507813 11.42765625 -9.51015625 10.8553125 -9.2578125 10.265625 C-7.78889901 7.61975598 -6.04651756 5.85146861 -3.875 3.75 C-3.15054687 3.04359375 -2.42609375 2.3371875 -1.6796875 1.609375 C-1.12539063 1.07828125 -0.57109375 0.5471875 0 0 Z " fill="#535ED7" transform="translate(392,162)"/>
<path d="M0 0 C12.07359316 -1.38802257 21.93705423 2.63780176 33 7 C33 7.66 33 8.32 33 9 C33.99 9 34.98 9 36 9 C36 9.66 36 10.32 36 11 C31.96544057 9.70296386 28.09178244 8.20506181 24.1875 6.5625 C16.33324768 3.4898874 8.3139253 2.224686 0 1 C0 0.67 0 0.34 0 0 Z " fill="#5863CC" transform="translate(293,109)"/>
<path d="M0 0 C4.3479182 0.65877548 7.97417319 2.27464565 12 4 C14.67790896 4.87238858 14.67790896 4.87238858 17 5 C17.66 4.34 18.32 3.68 19 3 C21.68839385 2.73008094 24.29141936 2.91262643 27 3 C23.73033945 6.26966055 19.44415718 7.04132202 15 8 C10.0013906 7.90568662 7.67103582 6.284611 4 3 C2.67098936 1.99426222 1.33926199 0.99204592 0 0 Z " fill="#5F6BCC" transform="translate(327,167)"/>
<path d="M0 0 C1.109375 3.734375 1.109375 3.734375 0.125 6.125 C-1.51210274 10.30870701 -1.67134941 14.54591969 -2 19 C-1.34 19 -0.68 19 0 19 C0.33 19.66 0.66 20.32 1 21 C3.32156597 21.40729228 5.6568787 21.74438677 8 22 C8 22.33 8 22.66 8 23 C6.56344146 23.08131463 5.1255517 23.13933559 3.6875 23.1875 C2.48673828 23.23970703 2.48673828 23.23970703 1.26171875 23.29296875 C-1 23 -1 23 -2.765625 21.80859375 C-5.32585954 18.05736402 -4.54597988 13.32760896 -4 9 C-2.94800377 5.82579491 -1.61705532 2.92369377 0 0 Z " fill="#6069C7" transform="translate(109,396)"/>
<path d="M0 0 C0.33 0.99 0.66 1.98 1 3 C0.01 3.33 -0.98 3.66 -2 4 C-3.02450239 6.18137797 -3.02450239 6.18137797 -4 9 C-7.71804372 17.55316784 -7.71804372 17.55316784 -12 20 C-12.66 19.67 -13.32 19.34 -14 19 C-12.90073597 17.22611914 -11.79539498 15.45600316 -10.6875 13.6875 C-10.07261719 12.70136719 -9.45773438 11.71523438 -8.82421875 10.69921875 C-7.32248161 8.4771623 -5.94029267 6.81093983 -4 5 C-2.65263027 3.34466005 -1.31665664 1.67987227 0 0 Z " fill="#5764CF" transform="translate(124,376)"/>
<path d="M0 0 C0.33 0 0.66 0 1 0 C1.02687279 1.81242052 1.04633715 3.62495233 1.0625 5.4375 C1.07410156 6.44683594 1.08570312 7.45617187 1.09765625 8.49609375 C1 11 1 11 0 12 C-0.15980437 14.44608998 -0.25929447 16.86731058 -0.31640625 19.31640625 C-0.33718735 20.04746078 -0.35796844 20.77851532 -0.37937927 21.53172302 C-0.44495024 23.87521656 -0.50379432 26.21882539 -0.5625 28.5625 C-0.60567808 30.14779855 -0.64929213 31.73308529 -0.69335938 33.31835938 C-0.8006392 37.21212037 -0.9018849 41.10599772 -1 45 C-1.33 45 -1.66 45 -2 45 C-2.04980918 40.03785631 -2.08591147 35.07586139 -2.10986328 30.11352539 C-2.11985897 28.42892925 -2.13346004 26.74435019 -2.15087891 25.05981445 C-2.17541276 22.62446859 -2.18654758 20.18935408 -2.1953125 17.75390625 C-2.20563507 17.01290176 -2.21595764 16.27189728 -2.22659302 15.50843811 C-2.22772363 10.11913893 -1.35101556 5.21099848 0 0 Z " fill="#656CBD" transform="translate(65,225)"/>
<path d="M0 0 C0.66 0.33 1.32 0.66 2 1 C-2.95589921 8.0516119 -8.13424085 14.68182857 -14 21 C-14.33 20.01 -14.66 19.02 -15 18 C-14.67 17.34 -14.34 16.68 -14 16 C-13.01 16 -12.02 16 -11 16 C-11 14.68 -11 13.36 -11 12 C-10.01 11.67 -9.02 11.34 -8 11 C-6.98812105 9.34051852 -5.9873454 7.67419438 -5 6 C-4.34 6 -3.68 6 -3 6 C-2.87625 5.195625 -2.7525 4.39125 -2.625 3.5625 C-2.41875 2.716875 -2.2125 1.87125 -2 1 C-1.34 0.67 -0.68 0.34 0 0 Z " fill="#5460CD" transform="translate(395,352)"/>
<path d="M0 0 C3.22461601 1.8138465 6.25466989 3.83431168 9.25 6 C9.93578125 6.495 10.6215625 6.99 11.328125 7.5 C13 9 13 9 14 12 C15.49985609 13.66710346 15.49985609 13.66710346 17 15 C14.69 15 12.38 15 10 15 C8.875 11.25 8.875 11.25 10 9 C9.01 9 8.02 9 7 9 C7 8.01 7 7.02 7 6 C6.01 6 5.02 6 4 6 C4 5.34 4 4.68 4 4 C2.68 3.34 1.36 2.68 0 2 C0 1.34 0 0.68 0 0 Z " fill="#4856E1" transform="translate(345,104)"/>
<path d="M0 0 C0.33 0.99 0.66 1.98 1 3 C-2.01887244 6.48331435 -4.56909529 7.79157144 -9 9 C-9 9.66 -9 10.32 -9 11 C-11.31 11.33 -13.62 11.66 -16 12 C-13.04983186 8.82559105 -9.99784714 6.58078442 -6.3125 4.3125 C-2.97781689 2.39067278 -2.97781689 2.39067278 0 0 Z " fill="#5663D1" transform="translate(351,310)"/>
<path d="M0 0 C0.33 0 0.66 0 1 0 C1.1953125 6.0546875 1.1953125 6.0546875 1 8 C0.34 8.66 -0.32 9.32 -1 10 C-1.45811675 11.97235333 -1.45811675 11.97235333 -1.625 14.125 C-1.810625 16.043125 -1.810625 16.043125 -2 18 C-2.66 18 -3.32 18 -4 18 C-3.97679688 18.62648437 -3.95359375 19.25296875 -3.9296875 19.8984375 C-3.90261719 21.12433594 -3.90261719 21.12433594 -3.875 22.375 C-3.85179688 23.18710938 -3.82859375 23.99921875 -3.8046875 24.8359375 C-4 27 -4 27 -6 29 C-6.81376176 19.0314184 -3.18607276 9.32859141 0 0 Z " fill="#6069C9" transform="translate(72,196)"/>
<path d="M0 0 C-0.1875 2.3125 -0.1875 2.3125 -1 5 C-3.4375 6.875 -3.4375 6.875 -6 8 C-6.66 7.67 -7.32 7.34 -8 7 C-6.68 5.68 -5.36 4.36 -4 3 C-9.11365014 4.0681847 -14.07227969 5.23107476 -19 7 C-18.43359375 5.109375 -18.43359375 5.109375 -17 3 C-13.84765625 1.953125 -13.84765625 1.953125 -10.0625 1.25 C-8.81597656 1.00765625 -7.56945312 0.7653125 -6.28515625 0.515625 C-3 0 -3 0 0 0 Z " fill="#5667D7" transform="translate(401,154)"/>
<path d="M0 0 C1.8871875 0.0309375 1.8871875 0.0309375 3.8125 0.0625 C2.8125 2.0625 2.8125 2.0625 0.3359375 3.1484375 C-3.99511764 4.272015 -8.10673411 4.51694437 -12.5625 4.6875 C-13.39394531 4.72617187 -14.22539062 4.76484375 -15.08203125 4.8046875 C-17.11685156 4.89824246 -19.15214416 4.98142713 -21.1875 5.0625 C-18.19063774 3.40066687 -15.49102629 2.60415857 -12.125 2 C-1.03960042 -0.01704263 -1.03960042 -0.01704263 0 0 Z " fill="#5A64CE" transform="translate(314.1875,330.9375)"/>
<path d="M0 0 C-0.63808594 0.62648437 -1.27617187 1.25296875 -1.93359375 1.8984375 C-2.75988281 2.71570313 -3.58617187 3.53296875 -4.4375 4.375 C-5.26121094 5.18710938 -6.08492187 5.99921875 -6.93359375 6.8359375 C-9.03434672 8.82348515 -9.03434672 8.82348515 -10 11 C-10.66 11 -11.32 11 -12 11 C-12 9.35 -12 7.7 -12 6 C-11.34 6 -10.68 6 -10 6 C-10 5.34 -10 4.68 -10 4 C-9.34 4 -8.68 4 -8 4 C-7.67 2.68 -7.34 1.36 -7 0 C-3.98968256 -0.93423645 -3.13349732 -1.04449911 0 0 Z " fill="#525CD1" transform="translate(195,139)"/>
<path d="M0 0 C-0.33 0.99 -0.66 1.98 -1 3 C-1.66 3 -2.32 3 -3 3 C-3.04125 3.5775 -3.0825 4.155 -3.125 4.75 C-4.45453129 8.16879475 -6.89666629 9.22666645 -10 11 C-10.66 11 -11.32 11 -12 11 C-12 11.66 -12 12.32 -12 13 C-13.32 12.67 -14.64 12.34 -16 12 C-13.71336873 9.99397361 -11.42114438 7.99508435 -9.125 6 C-8.14853516 5.14148438 -8.14853516 5.14148438 -7.15234375 4.265625 C-6.52714844 3.72421875 -5.90195313 3.1828125 -5.2578125 2.625 C-4.6817627 2.12226563 -4.10571289 1.61953125 -3.51220703 1.1015625 C-2 0 -2 0 0 0 Z " fill="#5D68CE" transform="translate(197,310)"/>
<path d="M0 0 C0.66 0 1.32 0 2 0 C2 0.66 2 1.32 2 2 C1.34 2 0.68 2 0 2 C0.33 2.99 0.66 3.98 1 5 C0.05125 5.4125 -0.8975 5.825 -1.875 6.25 C-5.07852706 7.65955351 -5.07852706 7.65955351 -6.0625 10.125 C-6.371875 10.74375 -6.68125 11.3625 -7 12 C-9.625 12.75 -9.625 12.75 -12 13 C-12.33 13.99 -12.66 14.98 -13 16 C-13.66 15.67 -14.32 15.34 -15 15 C-10.72226048 9.75976909 -6.16137595 5.36068517 -1 1 C-0.67 0.67 -0.34 0.34 0 0 Z " fill="#5D66CF" transform="translate(54,282)"/>
<path d="M0 0 C0.33 0.66 0.66 1.32 1 2 C0.67 2.66 0.34 3.32 0 4 C-0.08510205 5.9593604 -0.10717656 7.92162794 -0.09765625 9.8828125 C-0.09443359 11.04941406 -0.09121094 12.21601563 -0.08789062 13.41796875 C-0.07951172 14.64128906 -0.07113281 15.86460937 -0.0625 17.125 C-0.05798828 18.35605469 -0.05347656 19.58710938 -0.04882812 20.85546875 C-0.0370133 23.90369392 -0.02054028 26.95182314 0 30 C-0.33 30 -0.66 30 -1 30 C-4.06192358 9.98814229 -4.06192358 9.98814229 -3 3 C-1.48046875 1.171875 -1.48046875 1.171875 0 0 Z " fill="#6871C8" transform="translate(364,191)"/>
<path d="M0 0 C2.75979741 3.28585851 4.18309468 6.62228796 5.6875 10.625 C6.12449219 11.77226562 6.56148437 12.91953125 7.01171875 14.1015625 C8 17 8 17 8 19 C7.34 19 6.68 19 6 19 C6 18.34 6 17.68 6 17 C5.34 17 4.68 17 4 17 C4 16.34 4 15.68 4 15 C3.34 15 2.68 15 2 15 C1.66048381 13.43883181 1.32867456 11.87598662 1 10.3125 C0.814375 9.44238281 0.62875 8.57226562 0.4375 7.67578125 C0.01027953 5.06287036 -0.07616201 2.64186962 0 0 Z " fill="#5C68CD" transform="translate(161,254)"/>
<path d="M0 0 C0.33 0.66 0.66 1.32 1 2 C-0.25 4.625 -0.25 4.625 -2 7 C-2.99 7 -3.98 7 -5 7 C-5.969375 7.515625 -6.93875 8.03125 -7.9375 8.5625 C-11.23225911 10.10901958 -11.74998435 10.05994031 -15 9 C-12.87562549 7.68647829 -10.75053408 6.37414287 -8.625 5.0625 C-8.02171875 4.68931641 -7.4184375 4.31613281 -6.796875 3.93164062 C-2.2265625 1.11328125 -2.2265625 1.11328125 0 0 Z " fill="#5D68CB" transform="translate(155,98)"/>
<path d="M0 0 C-1.65 0.66 -3.3 1.32 -5 2 C-5 2.66 -5 3.32 -5 4 C-7.63256804 4.76783235 -10.29408207 5.26343823 -13 5.6875 C-13.66 5.79449219 -14.32 5.90148437 -15 6.01171875 C-17.45588283 5.99732881 -18.90051481 5.22313758 -21 4 C-20.02417969 3.72285156 -19.04835938 3.44570313 -18.04296875 3.16015625 C-16.75780249 2.794306 -15.47264679 2.42841864 -14.1875 2.0625 C-12.92292969 1.70285156 -11.65835937 1.34320313 -10.35546875 0.97265625 C-3.38061798 -1.0491573 -3.38061798 -1.0491573 0 0 Z " fill="#DCE5F8" transform="translate(305,424)"/>
<path d="M0 0 C0.66 0.33 1.32 0.66 2 1 C-0.82945884 5.85222091 -3.54373599 10.45784143 -8 14 C-10.15234375 13.62109375 -10.15234375 13.62109375 -12 13 C-11.55269531 12.56429688 -11.10539062 12.12859375 -10.64453125 11.6796875 C-6.85478464 7.94650427 -3.33540417 4.143987 0 0 Z " fill="#5C67CB" transform="translate(137,362)"/>
<path d="M0 0 C1 3 1 3 1 6 C-1.14884077 8.3230711 -3.39068347 10.45596738 -5.75 12.5625 C-7.1660243 13.96549967 -7.1660243 13.96549967 -7.5 16.125 C-7.665 16.74375 -7.83 17.3625 -8 18 C-8.99 18.33 -9.98 18.66 -11 19 C-9.60318936 13.9499923 -7.40056078 10.30405582 -4.375 6.125 C-3.95476562 5.53203125 -3.53453125 4.9390625 -3.1015625 4.328125 C-2.07434578 2.88068326 -1.0380937 1.43966081 0 0 Z " fill="#D4DBF6" transform="translate(180,154)"/>
<path d="M0 0 C0.66 0.33 1.32 0.66 2 1 C1.04956626 2.33897583 0.08940853 3.67105427 -0.875 5 C-1.40867187 5.7425 -1.94234375 6.485 -2.4921875 7.25 C-3.23855469 8.11625 -3.23855469 8.11625 -4 9 C-4.66 9 -5.32 9 -6 9 C-6.2475 9.5775 -6.495 10.155 -6.75 10.75 C-8.16683317 13.3002997 -9.87627537 15.01785701 -12 17 C-12 16.01 -12 15.02 -12 14 C-11.34 14 -10.68 14 -10 14 C-9.9175 13.236875 -9.835 12.47375 -9.75 11.6875 C-8.83525863 8.40967674 -7.68583797 7.93044604 -5 6 C-4.835 5.319375 -4.67 4.63875 -4.5 3.9375 C-4 2 -4 2 -2.0625 0.6875 C-1.381875 0.460625 -0.70125 0.23375 0 0 Z " fill="#525DCA" transform="translate(425,146)"/>
<path d="M0 0 C0.99 0.33 1.98 0.66 3 1 C2.61328125 1.61746094 2.2265625 2.23492187 1.828125 2.87109375 C-1.58645378 8.42401023 -4.52376597 13.96964183 -7 20 C-8.22419163 16.06204091 -7.48320272 13.83887763 -6 10 C-5.34 10 -4.68 10 -4 10 C-3.814375 8.5459375 -3.814375 8.5459375 -3.625 7.0625 C-3.41875 6.051875 -3.2125 5.04125 -3 4 C-2.34 3.67 -1.68 3.34 -1 3 C-0.67 2.01 -0.34 1.02 0 0 Z " fill="#535ECB" transform="translate(173,160)"/>
<path d="M0 0 C7.85179399 0.82650463 15.08057343 4.35819654 22 8 C17.93315642 9.35561453 16.10111305 8.17959316 12.125 6.6875 C10.30355469 6.01267578 10.30355469 6.01267578 8.4453125 5.32421875 C5.62043992 4.2384684 2.80501882 3.13587264 0 2 C0 1.34 0 0.68 0 0 Z " fill="#5E6ACA" transform="translate(304,85)"/>
<path d="M0 0 C0.33 0.99 0.66 1.98 1 3 C-2.14540705 8.14702972 -7.22809229 11.46185475 -12 15 C-12 12 -12 12 -9.375 9.08203125 C-8.25750594 7.98449244 -7.13214357 6.89492105 -6 5.8125 C-5.42765625 5.25369141 -4.8553125 4.69488281 -4.265625 4.11914062 C-2.85037212 2.73926907 -1.42602845 1.36873266 0 0 Z " fill="#BDBCBC" transform="translate(78,67)"/>
<path d="M0 0 C0 0.66 0 1.32 0 2 C-0.84304688 2.20496094 -1.68609375 2.40992188 -2.5546875 2.62109375 C-3.65039062 2.89050781 -4.74609375 3.15992188 -5.875 3.4375 C-7.51082031 3.83775391 -7.51082031 3.83775391 -9.1796875 4.24609375 C-11.92484721 4.8786478 -11.92484721 4.8786478 -14 6 C-16.6723621 6.13415472 -19.32250488 6.04318541 -22 6 C-19.18112949 3.18112949 -15.88928699 2.7744314 -12.125 1.875 C-11.40441406 1.69324219 -10.68382812 1.51148438 -9.94140625 1.32421875 C-6.50054947 0.48143062 -3.56318117 0 0 0 Z " fill="#5D68CA" transform="translate(412,137)"/>
<path d="M0 0 C0.33 0.99 0.66 1.98 1 3 C-0.33333333 4.33333333 -1.66666667 5.66666667 -3 7 C-3.86625 7.9075 -4.7325 8.815 -5.625 9.75 C-8 12 -8 12 -10 12 C-10.33 12.66 -10.66 13.32 -11 14 C-13.0625 14.625 -13.0625 14.625 -15 15 C-13.33333333 13.33333333 -11.66666667 11.66666667 -10 10 C-9.278125 9.236875 -8.55625 8.47375 -7.8125 7.6875 C-6 6 -6 6 -4 6 C-3.566875 5.071875 -3.566875 5.071875 -3.125 4.125 C-2 2 -2 2 0 0 Z " fill="#D7DEF6" transform="translate(375,378)"/>
<path d="M0 0 C0.99 0 1.98 0 3 0 C2.01 2.97 1.02 5.94 0 9 C1.32 9.66 2.64 10.32 4 11 C5.67334039 11.98879205 7.34151823 12.98648336 9 14 C8.01 14.33 7.02 14.66 6 15 C6 14.34 6 13.68 6 13 C5.401875 12.855625 4.80375 12.71125 4.1875 12.5625 C2.43849596 12.1127561 0.71322977 11.57107659 -1 11 C-2.0257259 6.58937864 -2.03684712 4.07369424 0 0 Z " fill="#5663CB" transform="translate(207,307)"/>
<path d="M0 0 C0.33 0 0.66 0 1 0 C1.53084792 2.91516484 2.04999055 5.83160557 2.5625 8.75 C2.71396484 9.575 2.86542969 10.4 3.02148438 11.25 C3.16005859 12.04921875 3.29863281 12.8484375 3.44140625 13.671875 C3.57232666 14.4050293 3.70324707 15.13818359 3.83813477 15.89355469 C4.01247412 18.16233287 3.66874807 19.83778579 3 22 C-0.01667085 16.98013301 -0.38714622 13.28676196 -0.1875 7.625 C-0.17396484 6.88894531 -0.16042969 6.15289062 -0.14648438 5.39453125 C-0.11144869 3.59603257 -0.05765288 1.79791578 0 0 Z " fill="#616AD0" transform="translate(157,232)"/>
<path d="M0 0 C-2.31 2.31 -4.62 4.62 -7 7 C-7.33 6.01 -7.66 5.02 -8 4 C-7.67 3.34 -7.34 2.68 -7 2 C-7.5775 2.350625 -8.155 2.70125 -8.75 3.0625 C-11.39786506 4.16577711 -12.33185326 3.80156509 -15 3 C-13.25531628 2.29911844 -11.50398839 1.61475991 -9.75 0.9375 C-8.77546875 0.55464844 -7.8009375 0.17179688 -6.796875 -0.22265625 C-4 -1 -4 -1 0 0 Z " fill="#D4DCF9" transform="translate(398,157)"/>
<path d="M0 0 C-1.43671568 0.64757625 -2.87440416 1.29299453 -4.3125 1.9375 C-5.11300781 2.29714844 -5.91351563 2.65679687 -6.73828125 3.02734375 C-10.04647068 4.45003661 -12.61305082 5.12109753 -16.1875 5.0625 C-18.0746875 5.0315625 -18.0746875 5.0315625 -20 5 C-16.6109639 2.7406426 -13.32015989 1.82999933 -9.4375 0.8125 C-8.75236328 0.62236328 -8.06722656 0.43222656 -7.36132812 0.23632812 C-2.24740751 -1.12370376 -2.24740751 -1.12370376 0 0 Z " fill="#5F6ACC" transform="translate(383,145)"/>
<path d="M0 0 C0.33 0.66 0.66 1.32 1 2 C-7.01949541 10.31651376 -7.01949541 10.31651376 -13 11 C-9.0299782 6.78185183 -4.69159716 3.38772897 0 0 Z " fill="#DFE8FB" transform="translate(206,130)"/>
<path d="M0 0 C0.66 0.99 1.32 1.98 2 3 C-4.14285714 8.57142857 -4.14285714 8.57142857 -9 9 C-6.78310162 4.56620325 -4.22271781 2.53363068 0 0 Z " fill="#5661CA" transform="translate(139,108)"/>
<path d="M0 0 C1 2 1 2 0.4375 3.9375 C-1.53378181 6.76586086 -3.91948579 7.52135318 -7 9 C-9.31418291 11.06167261 -9.31418291 11.06167261 -11 13 C-11.66 12.67 -12.32 12.34 -13 12 C-11.3989569 10.3719224 -9.79405264 8.74764115 -8.1875 7.125 C-7.29417969 6.22007812 -6.40085938 5.31515625 -5.48046875 4.3828125 C-3 2 -3 2 0 0 Z " fill="#5662C9" transform="translate(180,323)"/>
<path d="M0 0 C1.134375 0.020625 2.26875 0.04125 3.4375 0.0625 C0.05601324 1.89413866 -3.40107179 3.0869087 -7.0625 4.25 C-8.1865625 4.61480469 -9.310625 4.97960937 -10.46875 5.35546875 C-13.41565722 6.02894123 -14.79397346 6.12783987 -17.5625 5.0625 C-14.68831279 3.4905761 -12.08412394 2.63121611 -8.875 2 C-5.41087882 1.31397927 -3.50156738 0.06143101 0 0 Z " fill="#5964CB" transform="translate(144.5625,412.9375)"/>
<path d="M0 0 C0.33 1.32 0.66 2.64 1 4 C0.43410156 4.40992188 -0.13179688 4.81984375 -0.71484375 5.2421875 C-1.44832031 5.78101563 -2.18179687 6.31984375 -2.9375 6.875 C-3.66839844 7.40867187 -4.39929688 7.94234375 -5.15234375 8.4921875 C-7.11098235 9.88012104 -7.11098235 9.88012104 -8 12 C-9.32 11.67 -10.64 11.34 -12 11 C-11.34 11 -10.68 11 -10 11 C-10 10.34 -10 9.68 -10 9 C-5.52941176 5 -5.52941176 5 -3 5 C-2.690625 4.360625 -2.38125 3.72125 -2.0625 3.0625 C-1 1 -1 1 0 0 Z " fill="#5D66CE" transform="translate(364,298)"/>
<path d="M0 0 C2.40072955 2.88087546 4.47291037 5.56404834 6 9 C8.31 9 10.62 9 13 9 C12.67 9.66 12.34 10.32 12 11 C5.25 11.125 5.25 11.125 3 10 C3 9.34 3 8.68 3 8 C2.34 8 1.68 8 1 8 C0.67 5.36 0.34 2.72 0 0 Z " fill="#5F6ACC" transform="translate(169,273)"/>
<path d="M0 0 C-2 2 -2 2 -5.125 2.125 C-6.07375 2.08375 -7.0225 2.0425 -8 2 C-8 2.66 -8 3.32 -8 4 C-10.75 5.125 -10.75 5.125 -14 6 C-16.203125 5.0546875 -16.203125 5.0546875 -18 4 C-11.74827614 1.13035626 -6.90352555 -0.51137226 0 0 Z " fill="#4653D8" transform="translate(394,143)"/>
<path d="M0 0 C6.41481258 -0.42765417 11.88595404 1.14256832 18 3 C18 3.33 18 3.66 18 4 C11.42684522 4.36517527 6.20514474 3.13619737 0 1 C0 0.67 0 0.34 0 0 Z " fill="#6875CE" transform="translate(200,426)"/>
<path d="M0 0 C3.46941546 0.45822468 6.67395049 0.89131683 10 2 C9.49396008 4.16874252 9.00016187 5.99967627 8 8 C7.34 8 6.68 8 6 8 C6 6.68 6 5.36 6 4 C5.38125 3.71125 4.7625 3.4225 4.125 3.125 C2 2 2 2 0 0 Z " fill="#4C58DA" transform="translate(294,82)"/>
<path d="M0 0 C-1.65 0.66 -3.3 1.32 -5 2 C-5 2.66 -5 3.32 -5 4 C-7.97 4 -10.94 4 -14 4 C-14 3.34 -14 2.68 -14 2 C-12.04396149 1.47061343 -10.08507711 0.95173199 -8.125 0.4375 C-7.03445313 0.14746094 -5.94390625 -0.14257812 -4.8203125 -0.44140625 C-2 -1 -2 -1 0 0 Z " fill="#616DD2" transform="translate(359,151)"/>
<path d="M0 0 C-1.06541016 0.30744141 -1.06541016 0.30744141 -2.15234375 0.62109375 C-3.53099609 1.02521484 -3.53099609 1.02521484 -4.9375 1.4375 C-6.31228516 1.83775391 -6.31228516 1.83775391 -7.71484375 2.24609375 C-9.9402493 2.79026051 -9.9402493 2.79026051 -11 4 C-12.51928038 4.07179964 -14.04167482 4.08392007 -15.5625 4.0625 C-16.38878906 4.05347656 -17.21507812 4.04445312 -18.06640625 4.03515625 C-18.70449219 4.02355469 -19.34257812 4.01195312 -20 4 C-16.76393248 2.21860706 -13.57342755 1.22819081 -10 0.3125 C-8.96875 0.04050781 -7.9375 -0.23148438 -6.875 -0.51171875 C-4.11053448 -0.98122716 -2.60249272 -0.93214283 0 0 Z " fill="#C4CCF2" transform="translate(370,130)"/>
<path d="M0 0 C-1.05078125 1.45703125 -1.05078125 1.45703125 -3 3 C-6.35546875 3.51171875 -6.35546875 3.51171875 -10.1875 3.6875 C-12.09595703 3.78611328 -12.09595703 3.78611328 -14.04296875 3.88671875 C-15.01878906 3.92410156 -15.99460937 3.96148437 -17 4 C-12.64760099 -0.35239901 -5.82763193 -0.242818 0 0 Z " fill="#4C58D5" transform="translate(299,423)"/>
<path d="M0 0 C0.33 0.66 0.66 1.32 1 2 C-1.01577062 6.50584021 -3.83128248 8.49876949 -8 11 C-8.66 10.67 -9.32 10.34 -10 10 C-6.7 6.7 -3.4 3.4 0 0 Z " fill="#5A63C9" transform="translate(149,351)"/>
<path d="M0 0 C0 0.66 0 1.32 0 2 C-2.52475462 3.26237731 -4.31200466 3.09856404 -7.125 3.0625 C-8.03507813 3.05347656 -8.94515625 3.04445313 -9.8828125 3.03515625 C-10.58148438 3.02355469 -11.28015625 3.01195313 -12 3 C-12 2.34 -12 1.68 -12 1 C-8.0186217 -0.3271261 -4.14954773 -0.06915913 0 0 Z " fill="#4E5AD2" transform="translate(204,81)"/>
<path d="M0 0 C0.33 0 0.66 0 1 0 C1.35474262 3.07443606 1.52066436 5.93912465 1 9 C-1.8125 11.625 -1.8125 11.625 -5 13 C-5.99 12.67 -6.98 12.34 -8 12 C-2.25 7 -2.25 7 0 7 C0 4.69 0 2.38 0 0 Z " fill="#5661CC" transform="translate(64,269)"/>
<path d="M0 0 C2.05078125 0.03255208 4.1015625 0.06510417 6.15234375 0.09765625 C3.82918677 2.42081323 2.279732 2.822623 -0.84765625 3.72265625 C-1.73453125 3.98304688 -2.62140625 4.2434375 -3.53515625 4.51171875 C-5.84765625 5.09765625 -5.84765625 5.09765625 -7.84765625 5.09765625 C-7.84765625 4.43765625 -7.84765625 3.77765625 -7.84765625 3.09765625 C-7.04328125 2.78828125 -6.23890625 2.47890625 -5.41015625 2.16015625 C-0.22964029 0.01213744 -0.22964029 0.01213744 0 0 Z " fill="#5864C6" transform="translate(347.84765625,169.90234375)"/>
<path d="M0 0 C0 0.66 0 1.32 0 2 C0.99 2.33 1.98 2.66 3 3 C-1.98283716 4.14051606 -6.94468132 5.22225866 -12 6 C-8.40461874 2.91824463 -4.933456 0 0 0 Z " fill="#5A66D0" transform="translate(168,92)"/>
<path d="M0 0 C-2.46301423 2.46301423 -4.27360036 2.76766521 -7.625 3.625 C-8.62789063 3.88539063 -9.63078125 4.14578125 -10.6640625 4.4140625 C-11.43492188 4.60742188 -12.20578125 4.80078125 -13 5 C-13 4.34 -13 3.68 -13 3 C-8.55213562 -0.08879471 -5.26522314 -1.69239315 0 0 Z " fill="#575FC9" transform="translate(110,329)"/>
<path d="M0 0 C0.66 0.33 1.32 0.66 2 1 C0 4 0 4 -3 5 C-3.66 5.66 -4.32 6.32 -5 7 C-7.62113708 7 -9.50935112 6.68707555 -12 6 C-10.04669132 4.96958487 -8.08718472 3.9509107 -6.125 2.9375 C-5.03445312 2.36902344 -3.94390625 1.80054688 -2.8203125 1.21484375 C-1.42425781 0.61349609 -1.42425781 0.61349609 0 0 Z " fill="#D9E1FA" transform="translate(165,304)"/>
<path d="M0 0 C0.33 1.32 0.66 2.64 1 4 C0.01 4.495 0.01 4.495 -1 5 C-2.13350534 7.01669827 -2.13350534 7.01669827 -3 9 C-3.99 9 -4.98 9 -6 9 C-6.33 9.99 -6.66 10.98 -7 12 C-7.66 11.67 -8.32 11.34 -9 11 C-8.34 10.01 -7.68 9.02 -7 8 C-6.34 8 -5.68 8 -5 8 C-4.731875 7.4225 -4.46375 6.845 -4.1875 6.25 C-2.98280141 3.9674132 -1.59201885 2.0262058 0 0 Z " fill="#636CCC" transform="translate(374,286)"/>
<path d="M0 0 C0.33 0 0.66 0 1 0 C1 2.64 1 5.28 1 8 C1.66 8 2.32 8 3 8 C3.33 8.66 3.66 9.32 4 10 C6.32156597 10.40729228 8.6568787 10.74438677 11 11 C11 11.33 11 11.66 11 12 C9.54176788 12.0270043 8.08339325 12.04639787 6.625 12.0625 C5.81289062 12.07410156 5.00078125 12.08570313 4.1640625 12.09765625 C2 12 2 12 0 11 C0 7.37 0 3.74 0 0 Z " fill="#4D5BD1" transform="translate(106,407)"/>
<path d="M0 0 C0.33 0.99 0.66 1.98 1 3 C0.01 3.66 -0.98 4.32 -2 5 C-2.33 5.99 -2.66 6.98 -3 8 C-4.65 8 -6.3 8 -8 8 C-7.04578192 6.85073734 -6.08647955 5.70569459 -5.125 4.5625 C-4.59132812 3.92441406 -4.05765625 3.28632813 -3.5078125 2.62890625 C-2 1 -2 1 0 0 Z " fill="#5D65D1" transform="translate(158,343)"/>
<path d="M0 0 C0.99 0.495 0.99 0.495 2 1 C1.01 1.495 1.01 1.495 0 2 C0 1.34 0 0.68 0 0 Z M0 2 C-0.33 2.99 -0.66 3.98 -1 5 C-2.84765625 5.73046875 -2.84765625 5.73046875 -5.0625 6.1875 C-5.79597656 6.34605469 -6.52945312 6.50460937 -7.28515625 6.66796875 C-8.13400391 6.83232422 -8.13400391 6.83232422 -9 7 C-8.25 5.0625 -8.25 5.0625 -7 3 C-4.50529228 2.03430669 -2.70254461 2 0 2 Z " fill="#4351E6" transform="translate(342,319)"/>
<path d="M0 0 C-4.95 2.475 -4.95 2.475 -10 5 C-10 4.34 -10 3.68 -10 3 C-10.99 2.67 -11.98 2.34 -13 2 C-11.5882217 1.46605821 -10.17029756 0.94834896 -8.75 0.4375 C-7.96109375 0.14746094 -7.1721875 -0.14257812 -6.359375 -0.44140625 C-4 -1 -4 -1 0 0 Z " fill="#6A70AA" transform="translate(241,265)"/>
<path d="M0 0 C0.84214142 3.36856566 1.1138982 5.17893306 0.8125 8.5 C0.72935547 9.62921875 0.72935547 9.62921875 0.64453125 10.78125 C0 13 0 13 -4 17 C-2.68 11.39 -1.36 5.78 0 0 Z " fill="#5F6ACA" transform="translate(393,241)"/>
<path d="M0 0 C0.33 0 0.66 0 1 0 C1.3690205 11.52164009 1.3690205 11.52164009 -1 17 C-1.33 17 -1.66 17 -2 17 C-2.21824777 10.9981863 -1.5056904 5.80766296 0 0 Z " fill="#727FCD" transform="translate(65,225)"/>
<path d="M0 0 C0.66 0.33 1.32 0.66 2 1 C1.67 1.99 1.34 2.98 1 4 C0.34 4 -0.32 4 -1 4 C-1.2475 4.639375 -1.495 5.27875 -1.75 5.9375 C-3 8 -3 8 -5.125 8.75 C-6.053125 8.87375 -6.053125 8.87375 -7 9 C-6.34 7.68 -5.68 6.36 -5 5 C-4.34 5 -3.68 5 -3 5 C-2.690625 4.360625 -2.38125 3.72125 -2.0625 3.0625 C-1 1 -1 1 0 0 Z " fill="#E2E8FA" transform="translate(188,145)"/>
<path d="M0 0 C-1.34882814 4.04648443 -3.34826069 4.95502599 -7 7 C-7.99 6.67 -8.98 6.34 -10 6 C-9.09650406 4.98808455 -8.17659153 3.99081074 -7.25 3 C-6.48429687 2.1646875 -6.48429687 2.1646875 -5.703125 1.3125 C-4 0 -4 0 0 0 Z " fill="#5763CE" transform="translate(122,125)"/>
<path d="M0 0 C4.54805635 -0.17835515 7.8794254 0.00214565 12 2 C12 2.33 12 2.66 12 3 C10.37509046 3.02698189 8.75005367 3.04638757 7.125 3.0625 C5.76761719 3.07990234 5.76761719 3.07990234 4.3828125 3.09765625 C2 3 2 3 0 2 C0 1.34 0 0.68 0 0 Z " fill="#535ED3" transform="translate(192,423)"/>
<path d="M0 0 C0.625 3.0625 0.625 3.0625 1 6 C-2.91402949 4.73058503 -4.79072873 3.48832306 -7 0 C-2.25 -1.125 -2.25 -1.125 0 0 Z " fill="#5360C7" transform="translate(326,161)"/>
<path d="M0 0 C1.258125 0.12375 2.51625 0.2475 3.8125 0.375 C4.87404297 0.47941406 4.87404297 0.47941406 5.95703125 0.5859375 C8 1 8 1 11 3 C10.67 3.99 10.34 4.98 10 6 C6.7 4.35 3.4 2.7 0 1 C0 0.67 0 0.34 0 0 Z " fill="#5D6AD1" transform="translate(329,120)"/>
<path d="M0 0 C-0.40683495 2.35964273 -0.89814339 3.85934088 -2.3125 5.8125 C-2.869375 6.204375 -3.42625 6.59625 -4 7 C-6.10546875 6.57421875 -6.10546875 6.57421875 -8 6 C-7.0479279 4.99403703 -6.08812654 3.99538437 -5.125 3 C-4.59132812 2.443125 -4.05765625 1.88625 -3.5078125 1.3125 C-2 0 -2 0 0 0 Z " fill="#5560CE" transform="translate(167,336)"/>
<path d="M0 0 C0.66 0.33 1.32 0.66 2 1 C1.67 1.66 1.34 2.32 1 3 C0.34 3 -0.32 3 -1 3 C-1.66 4.32 -2.32 5.64 -3 7 C-4.98 7 -6.96 7 -9 7 C-6.25604436 4.05278838 -3.61662784 1.80831392 0 0 Z " fill="#6D75B4" transform="translate(218,294)"/>
<path d="M0 0 C0 0.99 0 1.98 0 3 C-2.64 3.66 -5.28 4.32 -8 5 C-7.67 3.68 -7.34 2.36 -7 1 C-4.50935112 0.31292445 -2.62113708 0 0 0 Z " fill="#4E5AD3" transform="translate(227,270)"/>
<path d="M0 0 C0.66 0 1.32 0 2 0 C0.68822142 2.9262753 -0.75289234 4.75289234 -3 7 C-4.17574711 9.09989652 -4.17574711 9.09989652 -5 11 C-5.6875 9.3125 -5.6875 9.3125 -6 7 C-4.75 4.25 -4.75 4.25 -3 2 C-2.01 2 -1.02 2 0 2 C0 1.34 0 0.68 0 0 Z " fill="#E5EEFC" transform="translate(398,208)"/>
<path d="M0 0 C1.32 0.33 2.64 0.66 4 1 C1.9375 3.0625 1.9375 3.0625 -1 5 C-4.8125 4.75 -4.8125 4.75 -8 4 C-6 2 -6 2 -2.875 1.875 C-1.92625 1.91625 -0.9775 1.9575 0 2 C0 1.34 0 0.68 0 0 Z " fill="#4554DF" transform="translate(412,137)"/>
<path d="M0 0 C-4.5592907 3.03952713 -8.47162419 5 -14 5 C-14 4.34 -14 3.68 -14 3 C-4.58997722 -0.44419134 -4.58997722 -0.44419134 0 0 Z " fill="#E3ECFC" transform="translate(188,83)"/>
<path d="M0 0 C0.66 0 1.32 0 2 0 C0.43358249 4.30764815 -1.68336156 8.06171464 -4 12 C-4.33 12 -4.66 12 -5 12 C-5 10.35 -5 8.7 -5 7 C-4.34 7 -3.68 7 -3 7 C-2.67 5.68 -2.34 4.36 -2 3 C-1.34 3 -0.68 3 0 3 C0 2.01 0 1.02 0 0 Z " fill="#5762C7" transform="translate(402,340)"/>
<path d="M0 0 C1.04449911 3.13349732 0.93423645 3.98968256 0 7 C-0.99 7 -1.98 7 -3 7 C-3.33 8.32 -3.66 9.64 -4 11 C-4.66 11 -5.32 11 -6 11 C-4.54955729 6.89041233 -2.48889248 3.56741255 0 0 Z " fill="#5F6BCC" transform="translate(38,298)"/>
<path d="M0 0 C0.66 0.99 1.32 1.98 2 3 C1.34 3.66 0.68 4.32 0 5 C-0.144375 5.639375 -0.28875 6.27875 -0.4375 6.9375 C-1.10356162 9.37972594 -2.11604329 10.36177677 -4 12 C-4.66 11.67 -5.32 11.34 -6 11 C-4.02 7.37 -2.04 3.74 0 0 Z " fill="#646FCD" transform="translate(381,274)"/>
<path d="M0 0 C-3.74525799 3.74525799 -7.98270909 3.68909949 -13 4 C-8.62340682 -0.37659318 -5.88808394 -0.39919213 0 0 Z " fill="#4652D5" transform="translate(367,150)"/>
<path d="M0 0 C0.99 0.33 1.98 0.66 3 1 C0.69 3.31 -1.62 5.62 -4 8 C-4.33 6.68 -4.66 5.36 -5 4 C-2.6875 1.9375 -2.6875 1.9375 0 0 Z " fill="#E0E7FC" transform="translate(144,353)"/>
<path d="M0 0 C0.99 0.495 0.99 0.495 2 1 C2 1.99 2 2.98 2 4 C2.66 4 3.32 4 4 4 C3.67 6.31 3.34 8.62 3 11 C0.43383368 7.15075052 0.44902324 4.5650696 0 0 Z " fill="#E1E7FB" transform="translate(160,246)"/>
<path d="M0 0 C1 2 1 2 0.25 4.5625 C-1 7 -1 7 -4 8 C-4.99 9.485 -4.99 9.485 -6 11 C-6.66 10.67 -7.32 10.34 -8 10 C-5.36 6.7 -2.72 3.4 0 0 Z " fill="#616ACB" transform="translate(406,201)"/>
<path d="M0 0 C-3.96 1.65 -7.92 3.3 -12 5 C-12 4.01 -12 3.02 -12 2 C-10.56656 1.46809459 -9.12804633 0.94984742 -7.6875 0.4375 C-6.48673828 0.00244141 -6.48673828 0.00244141 -5.26171875 -0.44140625 C-3 -1 -3 -1 0 0 Z " fill="#545ECC" transform="translate(395,156)"/>
<path d="M0 0 C0 3 0 3 -1.875 5.1875 C-4 7 -4 7 -6 7 C-6.33 7.99 -6.66 8.98 -7 10 C-7.66 9.67 -8.32 9.34 -9 9 C-8.0409375 8.1028125 -8.0409375 8.1028125 -7.0625 7.1875 C-4.79689611 5.09189663 -4.79689611 5.09189663 -4 2 C-1.9375 0.8125 -1.9375 0.8125 0 0 Z " fill="#4451DF" transform="translate(116,130)"/>
<path d="M0 0 C4.29 0 8.58 0 13 0 C13 0.66 13 1.32 13 2 C13.66 2.33 14.32 2.66 15 3 C9.99109914 2.38487182 4.99367864 1.7282448 0 1 C0 0.67 0 0.34 0 0 Z " fill="#6873D1" transform="translate(293,109)"/>
<path d="M0 0 C2.64 0 5.28 0 8 0 C2.40843291 2.89933109 -1.58246635 4.25166799 -8 4 C-8 3.67 -8 3.34 -8 3 C-5.36 2.67 -2.72 2.34 0 2 C0 1.34 0 0.68 0 0 Z " fill="#444FDF" transform="translate(248,107)"/>
<path d="M0 0 C0.99 0.33 1.98 0.66 3 1 C0.03 3.64 -2.94 6.28 -6 9 C-6.33 8.01 -6.66 7.02 -7 6 C-5.90716423 4.96704564 -4.80029421 3.94892165 -3.6875 2.9375 C-3.07261719 2.36902344 -2.45773438 1.80054688 -1.82421875 1.21484375 C-0.92123047 0.61349609 -0.92123047 0.61349609 0 0 Z " fill="#4450E4" transform="translate(174,330)"/>
<path d="M0 0 C0 0.66 0 1.32 0 2 C-1.58086048 2.36504603 -3.16483907 2.71660506 -4.75 3.0625 C-5.63171875 3.25972656 -6.5134375 3.45695312 -7.421875 3.66015625 C-9.98679028 3.99825872 -11.57091639 3.81158635 -14 3 C-12.4188708 2.49307308 -10.83498617 1.99473557 -9.25 1.5 C-7.92742187 1.08234375 -7.92742187 1.08234375 -6.578125 0.65625 C-4 0 -4 0 0 0 Z " fill="#717AD0" transform="translate(211,273)"/>
<path d="M0 0 C0.33 0 0.66 0 1 0 C1.36923077 7.50769231 1.36923077 7.50769231 -0.5 10 C-0.995 10.33 -1.49 10.66 -2 11 C-2.66 10.67 -3.32 10.34 -4 10 C-2.68 6.7 -1.36 3.4 0 0 Z " fill="#5D68CA" transform="translate(388,259)"/>
<path d="M0 0 C0.33 1.32 0.66 2.64 1 4 C-1.67478244 5.6627026 -3.9995144 6.99983813 -7 8 C-7 6 -7 6 -5.1875 3.875 C-3 2 -3 2 0 2 C0 1.34 0 0.68 0 0 Z " fill="#4351E1" transform="translate(405,206)"/>
<path d="M0 0 C0.8125 1.6875 0.8125 1.6875 1 4 C-1.4375 6.75 -1.4375 6.75 -4 9 C-4.66 8.67 -5.32 8.34 -6 8 C-5.67 7.34 -5.34 6.68 -5 6 C-4.34 6 -3.68 6 -3 6 C-2.87625 5.38125 -2.7525 4.7625 -2.625 4.125 C-2 2 -2 2 0 0 Z " fill="#A6A6A6" transform="translate(47,103)"/>
<path d="M0 0 C0.66 0.33 1.32 0.66 2 1 C0.02 3.97 -1.96 6.94 -4 10 C-4.33 8.68 -4.66 7.36 -5 6 C-4.34 6 -3.68 6 -3 6 C-2.87625 5.195625 -2.7525 4.39125 -2.625 3.5625 C-2.41875 2.716875 -2.2125 1.87125 -2 1 C-1.34 0.67 -0.68 0.34 0 0 Z " fill="#5E6CCB" transform="translate(395,352)"/>
<path d="M0 0 C0.99 0.33 1.98 0.66 3 1 C0.69 3.31 -1.62 5.62 -4 8 C-4.33 7.01 -4.66 6.02 -5 5 C-3.35 3.35 -1.7 1.7 0 0 Z " fill="#DAE5FA" transform="translate(172,327)"/>
<path d="M0 0 C3.98381075 2.16264012 6.88983545 4.71211176 10 8 C9.01 8 8.02 8 7 8 C7 7.34 7 6.68 7 6 C6.01 6 5.02 6 4 6 C4 5.34 4 4.68 4 4 C2.68 3.34 1.36 2.68 0 2 C0 1.34 0 0.68 0 0 Z " fill="#5C65C7" transform="translate(345,104)"/>
<path d="M0 0 C0.99 0 1.98 0 3 0 C3 0.99 3 1.98 3 3 C-0.4352048 5.29013653 -1.985331 5.17842973 -6 5 C-5.34 4.34 -4.68 3.68 -4 3 C-2.68 3 -1.36 3 0 3 C0 2.01 0 1.02 0 0 Z " fill="#4959D2" transform="translate(343,400)"/>
<path d="M0 0 C1.60031344 3.20062687 0.03173691 5.72271806 -1 9 C-1.66 9 -2.32 9 -3 9 C-3.33 7.68 -3.66 6.36 -4 5 C-3.34 4.67 -2.68 4.34 -2 4 C-0.86649466 1.98330173 -0.86649466 1.98330173 0 0 Z " fill="#4C58D9" transform="translate(406,331)"/>
<path d="M0 0 C-0.33 1.32 -0.66 2.64 -1 4 C-3.31 4.33 -5.62 4.66 -8 5 C-3.16129032 0 -3.16129032 0 0 0 Z " fill="#5F6BD0" transform="translate(343,317)"/>
<path d="M0 0 C0.66 0 1.32 0 2 0 C1.25 7.625 1.25 7.625 -1 11 C-1.125 3.375 -1.125 3.375 0 0 Z " fill="#545FC8" transform="translate(419,298)"/>
<path d="M0 0 C0.33 0 0.66 0 1 0 C1 2.64 1 5.28 1 8 C-0.98 8.99 -0.98 8.99 -3 10 C-2.01 6.7 -1.02 3.4 0 0 Z " fill="#6872CC" transform="translate(72,196)"/>
<path d="M0 0 C1.60080151 4.00200378 0.29279692 7.04556236 -1 11 C-1.66 11 -2.32 11 -3 11 C-2.44894091 7.0507432 -1.61064629 3.65079826 0 0 Z " fill="#7078CC" transform="translate(78,180)"/>
<path d="M0 0 C0.99 0.33 1.98 0.66 3 1 C1.38405168 3.04119788 -0.2856382 5.04072937 -2 7 C-2.66 7 -3.32 7 -4 7 C-4.33 6.01 -4.66 5.02 -5 4 C-2.6875 1.9375 -2.6875 1.9375 0 0 Z " fill="#E5EFFD" transform="translate(384,167)"/>
<path d="M0 0 C1.25541557 3.76624671 0.37061958 5.37188934 -1 9 C-2.32 8.67 -3.64 8.34 -5 8 C-3.35 5.36 -1.7 2.72 0 0 Z " fill="#5763CE" transform="translate(94,153)"/>
<path d="M0 0 C3.9492568 0.55105909 7.34920174 1.38935371 11 3 C11 3.33 11 3.66 11 4 C6.78121808 4.19622241 3.82989106 3.80230168 0 2 C0 1.34 0 0.68 0 0 Z " fill="#565FC8" transform="translate(304,85)"/>
<path d="M0 0 C3.63 1.32 7.26 2.64 11 4 C6.74938644 5.41687119 4.28148375 4.19320039 0 3 C0 2.01 0 1.02 0 0 Z " fill="#DDE5FA" transform="translate(169,416)"/>
<path d="M0 0 C-6.4 4.06153846 -6.4 4.06153846 -9.4375 3.75 C-9.953125 3.5025 -10.46875 3.255 -11 3 C-10.34 3 -9.68 3 -9 3 C-9 2.34 -9 1.68 -9 1 C-3.375 -1.125 -3.375 -1.125 0 0 Z " fill="#525DC5" transform="translate(165,305)"/>
<path d="M0 0 C0 0.66 0 1.32 0 2 C-1.6796875 3.32421875 -1.6796875 3.32421875 -3.875 4.6875 C-4.59429687 5.14511719 -5.31359375 5.60273438 -6.0546875 6.07421875 C-7.01761719 6.53248047 -7.01761719 6.53248047 -8 7 C-8.66 6.67 -9.32 6.34 -10 6 C-8.71283353 4.99421411 -7.42011342 3.99553202 -6.125 3 C-5.40570313 2.443125 -4.68640625 1.88625 -3.9453125 1.3125 C-2 0 -2 0 0 0 Z " fill="#636BCA" transform="translate(207,303)"/>
<path d="M0 0 C0.99 0.495 0.99 0.495 2 1 C2.4140625 3.06640625 2.4140625 3.06640625 2.625 5.5625 C2.69976562 6.38878906 2.77453125 7.21507812 2.8515625 8.06640625 C2.92503906 9.02353516 2.92503906 9.02353516 3 10 C1.51171875 8.73046875 1.51171875 8.73046875 0 7 C-0.1875 3.3125 -0.1875 3.3125 0 0 Z " fill="#5965CC" transform="translate(158,244)"/>
<path d="M0 0 C0.33 0.66 0.66 1.32 1 2 C1.99 2 2.98 2 4 2 C2.25 6.875 2.25 6.875 0 8 C0 5.36 0 2.72 0 0 Z " fill="#4F56B7" transform="translate(364,213)"/>
<path d="M0 0 C0.33 1.32 0.66 2.64 1 4 C-1.375 5.5625 -1.375 5.5625 -4 7 C-4.66 6.67 -5.32 6.34 -6 6 C-4.02 4.02 -2.04 2.04 0 0 Z " fill="#636ACB" transform="translate(392,162)"/>
<path d="M0 0 C0.66 0 1.32 0 2 0 C0.44499019 3.81684226 -2.03595495 6.19195732 -5 9 C-3.7580393 5.56072421 -2.44259716 2.74792181 0 0 Z " fill="#525CC4" transform="translate(181,150)"/>
<path d="M0 0 C0.33 1.32 0.66 2.64 1 4 C-1.4375 6.75 -1.4375 6.75 -4 9 C-4.66 8.67 -5.32 8.34 -6 8 C-4.02 5.36 -2.04 2.72 0 0 Z " fill="#5F69C4" transform="translate(101,144)"/>
<path d="M0 0 C0.33 0.99 0.66 1.98 1 3 C-1.3125 5.5 -1.3125 5.5 -4 8 C-4.99 8 -5.98 8 -7 8 C-4.69 5.36 -2.38 2.72 0 0 Z " fill="#6B78C8" transform="translate(111,132)"/>
<path d="M0 0 C3.63 0.33 7.26 0.66 11 1 C7.5647952 3.29013653 6.014669 3.17842973 2 3 C2 2.34 2 1.68 2 1 C1.34 0.67 0.68 0.34 0 0 Z " fill="#5862C6" transform="translate(346,130)"/>
<path d="M0 0 C0.33 0.66 0.66 1.32 1 2 C-0.4375 4.625 -0.4375 4.625 -2 7 C-2.66 6.34 -3.32 5.68 -4 5 C-4 4.01 -4 3.02 -4 2 C-2.68 1.34 -1.36 0.68 0 0 Z " fill="#505CD8" transform="translate(155,98)"/>
<path d="M0 0 C0.66 0.33 1.32 0.66 2 1 C-1.28804981 3.91227269 -3.59885603 5.49701212 -8 6 C-5.63404067 3.38499232 -3.13950774 1.61000397 0 0 Z " fill="#D5DCF9" transform="translate(346,402)"/>
<path d="M0 0 C-1.41519715 2.0343459 -2.54982123 2.90410393 -4.98046875 3.421875 C-6.98176954 3.66273952 -8.9909944 3.83532741 -11 4 C-10 2 -10 2 -7.75 0.875 C-4.98386705 -0.00513321 -2.87951649 -0.1645438 0 0 Z " fill="#4251E0" transform="translate(115,325)"/>
<path d="M0 0 C0.66 0 1.32 0 2 0 C1.67 0.99 1.34 1.98 1 3 C0.34 3 -0.32 3 -1 3 C-1.33 4.32 -1.66 5.64 -2 7 C-2.99 7 -3.98 7 -5 7 C-1.125 1.125 -1.125 1.125 0 0 Z " fill="#565FD4" transform="translate(195,310)"/>
<path d="M0 0 C0.66 0.33 1.32 0.66 2 1 C2 1.66 2 2.32 2 3 C-1.465 4.485 -1.465 4.485 -5 6 C-5.66 5.34 -6.32 4.68 -7 4 C-1.7265625 0.77734375 -1.7265625 0.77734375 0 0 Z " fill="#DCE3FA" transform="translate(219,276)"/>
<path d="M0 0 C1.46726798 3.81489674 0.43336419 6.29011622 -1 10 C-1.99 10 -2.98 10 -4 10 C-2.66666667 6.66666667 -1.33333333 3.33333333 0 0 Z " fill="#727DD2" transform="translate(84,168)"/>
<path d="M0 0 C0.99 0.33 1.98 0.66 3 1 C0.525 4.465 0.525 4.465 -2 8 C-2.33 7.01 -2.66 6.02 -3 5 C-2.34 5 -1.68 5 -1 5 C-0.67 3.35 -0.34 1.7 0 0 Z " fill="#5D66CE" transform="translate(416,155)"/>
<path d="M0 0 C0.33 0.99 0.66 1.98 1 3 C-0.40445835 5.2636564 -2.1967913 7.0208685 -4 9 C-4.33 8.01 -4.66 7.02 -5 6 C-3.59554165 3.7363436 -1.8032087 1.9791315 0 0 Z " fill="#5761C8" transform="translate(433,136)"/>
<path d="M0 0 C-0.66 0 -1.32 0 -2 0 C-2 0.66 -2 1.32 -2 2 C-4.64 2.33 -7.28 2.66 -10 3 C-4.375 -1.3125 -4.375 -1.3125 0 0 Z " fill="#6873CA" transform="translate(178,89)"/>
<path d="M0 0 C3.82097239 0.53069061 6.06171403 1.49701566 9 4 C2.25 3.125 2.25 3.125 0 2 C0 1.34 0 0.68 0 0 Z " fill="#535EC8" transform="translate(216,322)"/>
<path d="M0 0 C0.66 0 1.32 0 2 0 C1.67 0.99 1.34 1.98 1 3 C-0.65204456 3.70211894 -2.31923769 4.36971413 -4 5 C-4.33 5.66 -4.66 6.32 -5 7 C-4.67 5.35 -4.34 3.7 -4 2 C-2.68 2 -1.36 2 0 2 C0 1.34 0 0.68 0 0 Z " fill="#414FDF" transform="translate(185,321)"/>
<path d="M0 0 C0.99 0 1.98 0 3 0 C1.25 5.75 1.25 5.75 -1 8 C-1.125 2.25 -1.125 2.25 0 0 Z " fill="#E0E7FB" transform="translate(28,310)"/>
<path d="M0 0 C1.45606519 4.52092968 0.27032841 7.51648796 -1 12 C-1.33 12 -1.66 12 -2 12 C-2.05422947 10.5629191 -2.09289723 9.12524538 -2.125 7.6875 C-2.14820313 6.88699219 -2.17140625 6.08648437 -2.1953125 5.26171875 C-2 3 -2 3 0 0 Z " fill="#4653D9" transform="translate(391,255)"/>
<path d="M0 0 C2.5722047 1.28610235 3.00974907 2.33393981 4 5 C3.625 7.25 3.625 7.25 3 9 C2.54625 8.21625 2.0925 7.4325 1.625 6.625 C0.11571258 3.96301969 0.11571258 3.96301969 -2 2 C-1.34 1.34 -0.68 0.68 0 0 Z " fill="#6F76BE" transform="translate(415,191)"/>
<path d="M0 0 C0.99 0.33 1.98 0.66 3 1 C2.34 1 1.68 1 1 1 C0.731875 1.61875 0.46375 2.2375 0.1875 2.875 C-1 5 -1 5 -4 7 C-3.43628586 3.73045798 -2.50037734 2.17424117 0 0 Z " fill="#DDE4FC" transform="translate(369,183)"/>
<path d="M0 0 C0.33 0.99 0.66 1.98 1 3 C-1.97 5.475 -1.97 5.475 -5 8 C-5.33 7.34 -5.66 6.68 -6 6 C-5.34 6 -4.68 6 -4 6 C-3.67 5.01 -3.34 4.02 -3 3 C-2.34 3 -1.68 3 -1 3 C-0.67 2.01 -0.34 1.02 0 0 Z " fill="#7078D0" transform="translate(376,178)"/>
<path d="M0 0 C-0.66 1.32 -1.32 2.64 -2 4 C-4.31 3.67 -6.62 3.34 -9 3 C-9 2.67 -9 2.34 -9 2 C-3.375 0 -3.375 0 0 0 Z " fill="#7177B6" transform="translate(441,129)"/>
<path d="M0 0 C0.66 0.99 1.32 1.98 2 3 C0.35 4.32 -1.3 5.64 -3 7 C-2.625 4.0625 -2.625 4.0625 -2 1 C-1.34 0.67 -0.68 0.34 0 0 Z " fill="#515DDC" transform="translate(139,108)"/>
</svg>
